<?xml version="1.0" encoding="utf-8"?>
<!-- Generator: Adobe Illustrator 15.0.0, SVG Export Plug-In . SVG Version: 6.00 Build 0)  -->
<!DOCTYPE svg PUBLIC "-//W3C//DTD SVG 1.1//EN" "http://www.w3.org/Graphics/SVG/1.1/DTD/svg11.dtd">
<svg version="1.1" id="Calque_1" xmlns="http://www.w3.org/2000/svg" xmlns:xlink="http://www.w3.org/1999/xlink" x="0px" y="0px"
	 width="53px" height="53px" viewBox="0 0 55 55" enable-background="new 0 0 55 55" xml:space="preserve">
<g>
	<g>
		<g>
			<g>
				<g>
					
						<radialGradient id="SVGID_1_" cx="310.4961" cy="-344.2246" r="25.0002" gradientTransform="matrix(-1 0 0 -1 338 -317)" gradientUnits="userSpaceOnUse">
						<stop  offset="0.7914" style="stop-color:#1377FF"/>
						<stop  offset="0.8386" style="stop-color:#1376FD"/>
						<stop  offset="0.8592" style="stop-color:#1273F6"/>
						<stop  offset="0.8746" style="stop-color:#116DE9"/>
						<stop  offset="0.8874" style="stop-color:#1064D7"/>
						<stop  offset="0.8986" style="stop-color:#0E59C0"/>
						<stop  offset="0.908" style="stop-color:#0C4DA6"/>
						<stop  offset="0.9571" style="stop-color:#1377FF"/>
						<stop  offset="0.9937" style="stop-color:#1377FF"/>
						<stop  offset="1" style="stop-color:#1377FF"/>
					</radialGradient>
					<circle fill="url(#SVGID_1_)" cx="27.504" cy="27.224" r="25"/>
					<g opacity="0.35">
						<path d="M26.241,50.359c-0.644-0.034-1.14-0.584-1.101-1.226c0.03-0.645,0.592-1.142,1.225-1.103
							c3.131,0.164,6.354-0.391,9.251-1.612c0.586-0.254,1.276,0.026,1.526,0.622c0.252,0.591-0.029,1.275-0.621,1.525
							c-1.75,0.738-3.594,1.259-5.483,1.552C29.445,50.364,27.833,50.447,26.241,50.359z M21.059,49.482
							c-3.354-0.974-6.507-2.731-9.11-5.086c-0.478-0.43-0.513-1.172-0.082-1.648s1.173-0.514,1.647-0.081
							c2.342,2.117,5.174,3.699,8.195,4.573c0.619,0.18,0.977,0.828,0.795,1.445c-0.128,0.451-0.505,0.762-0.939,0.83
							C21.4,49.539,21.229,49.529,21.059,49.482z M39.471,45.727c-0.378-0.522-0.262-1.248,0.26-1.629
							c2.547-1.852,4.678-4.301,6.162-7.086c0.305-0.566,1.01-0.783,1.582-0.48c0.565,0.306,0.78,1.012,0.479,1.58
							c-1.651,3.093-4.021,5.814-6.854,7.873c-0.154,0.113-0.328,0.184-0.504,0.211C40.177,46.26,39.736,46.092,39.471,45.727z
							 M8.477,40.452c-2.021-2.904-3.328-6.166-3.873-9.693c-0.174-1.137-0.267-2.297-0.272-3.445c0-0.645,0.524-1.169,1.161-1.172
							c0.645-0.003,1.166,0.516,1.172,1.163c0.006,1.031,0.089,2.074,0.248,3.097c0.488,3.173,1.66,6.108,3.479,8.716
							c0.368,0.528,0.238,1.257-0.291,1.625c-0.147,0.104-0.316,0.168-0.486,0.194C9.188,41.004,8.741,40.83,8.477,40.452z
							 M48.445,34.031c-0.621-0.167-0.992-0.831-0.828-1.455c0.756-2.801,0.9-5.735,0.458-8.629
							c-0.042-0.267-0.103-0.629-0.153-0.894c-0.126-0.633,0.254-1.464,0.891-1.562c0.017-0.001,0.029-0.006,0.045-0.006
							c0.619-0.098,1.233,0.504,1.353,1.119c0.06,0.294,0.14,0.782,0.187,1.083c0.496,3.217,0.324,6.427-0.516,9.542
							c-0.125,0.461-0.508,0.782-0.947,0.851C48.775,34.104,48.607,34.07,48.445,34.031z M46.534,18.739
							c-1.273-2.869-3.232-5.46-5.657-7.487c-0.493-0.414-0.559-1.15-0.145-1.645c0.414-0.49,1.146-0.557,1.644-0.146
							c2.694,2.255,4.871,5.136,6.291,8.329c0.261,0.59-0.004,1.278-0.594,1.542c-0.095,0.041-0.195,0.069-0.296,0.083
							C47.27,19.496,46.753,19.231,46.534,18.739z M5.779,23.493c-0.629-0.145-1.02-0.77-0.879-1.396
							c0.779-3.41,2.351-6.661,4.551-9.396c0.402-0.501,1.139-0.584,1.641-0.176c0.504,0.402,0.581,1.135,0.176,1.639
							c-1.978,2.461-3.393,5.383-4.086,8.449c-0.113,0.48-0.504,0.823-0.964,0.896C6.077,23.528,5.932,23.525,5.779,23.493z
							 M36.93,8.646c-2.812-1.431-5.959-2.212-9.104-2.255c-0.643-0.008-1.159-0.538-1.151-1.183
							c0.012-0.644,0.534-1.157,1.188-1.149c3.5,0.05,7.002,0.915,10.13,2.508c0.574,0.293,0.802,0.996,0.509,1.571
							c-0.175,0.346-0.502,0.566-0.86,0.622C37.406,8.796,37.163,8.763,36.93,8.646z M12.988,10.646
							c-0.4-0.508-0.311-1.242,0.193-1.638c2.789-2.199,5.971-3.69,9.452-4.434c0.601-0.078,1.25,0.268,1.384,0.896
							c0.135,0.631-0.265,1.25-0.897,1.387c-3.129,0.67-5.986,2.008-8.496,3.984c-0.16,0.129-0.349,0.207-0.541,0.237
							C13.68,11.14,13.256,10.989,12.988,10.646z"/>
					</g>
					<g opacity="0.35">
						<path d="M31.779,49.997c-0.633,0.119-1.248-0.296-1.359-0.929c-0.125-0.637,0.301-1.25,0.926-1.362
							c3.082-0.583,6.08-1.892,8.603-3.767c0.511-0.388,1.245-0.279,1.632,0.242c0.386,0.514,0.273,1.245-0.241,1.627
							c-1.521,1.135-3.188,2.08-4.954,2.812C34.895,49.239,33.346,49.703,31.779,49.997z M26.539,50.377
							c-3.494-0.148-6.973-1.105-10.061-2.775c-0.562-0.304-0.774-1.014-0.472-1.578c0.306-0.567,1.019-0.781,1.581-0.473
							c2.778,1.501,5.906,2.363,9.051,2.493c0.64,0.028,1.139,0.57,1.113,1.215c-0.02,0.468-0.31,0.859-0.717,1.03
							C26.887,50.35,26.714,50.381,26.539,50.377z M43.527,42.352c-0.491-0.418-0.555-1.152-0.137-1.644
							c2.032-2.406,3.521-5.29,4.301-8.351c0.16-0.621,0.795-1,1.42-0.84c0.623,0.158,1,0.793,0.842,1.416
							c-0.869,3.398-2.521,6.607-4.784,9.28c-0.121,0.146-0.274,0.254-0.44,0.322C44.339,42.699,43.872,42.641,43.527,42.352z
							 M12.169,44.596c-2.659-2.339-4.694-5.195-6.067-8.49c-0.441-1.066-0.806-2.168-1.084-3.285
							c-0.156-0.625,0.231-1.258,0.85-1.411c0.623-0.156,1.256,0.224,1.414,0.849c0.25,1,0.58,1.992,0.979,2.952
							c1.227,2.963,3.066,5.537,5.452,7.638c0.481,0.426,0.53,1.163,0.104,1.646c-0.121,0.14-0.269,0.241-0.428,0.308
							C12.991,44.965,12.516,44.902,12.169,44.596z M49.463,28.854c-0.643-0.017-1.162-0.571-1.15-1.216
							c0.07-2.898-0.487-5.785-1.608-8.49c-0.101-0.248-0.248-0.586-0.361-0.834c-0.271-0.582-0.102-1.481,0.494-1.726
							c0.015-0.005,0.029-0.013,0.042-0.019c0.577-0.24,1.318,0.199,1.581,0.768c0.127,0.271,0.322,0.727,0.438,1.007
							c1.248,3.008,1.842,6.165,1.767,9.392c-0.011,0.476-0.308,0.879-0.72,1.051C49.803,28.846,49.632,28.854,49.463,28.854z
							 M43.969,14.456c-1.922-2.484-4.439-4.537-7.275-5.929c-0.576-0.282-0.815-0.983-0.533-1.562
							c0.283-0.573,0.982-0.812,1.564-0.532c3.15,1.548,5.951,3.83,8.092,6.592c0.393,0.511,0.301,1.243-0.213,1.64
							c-0.08,0.062-0.17,0.113-0.265,0.152C44.861,15.017,44.301,14.88,43.969,14.456z M5.516,28.766
							c-0.643,0.01-1.173-0.502-1.185-1.147c-0.056-3.496,0.698-7.026,2.183-10.208c0.271-0.581,0.971-0.835,1.551-0.559
							c0.584,0.271,0.834,0.965,0.562,1.548c-1.337,2.861-2.016,6.035-1.963,9.18c0.008,0.494-0.292,0.918-0.723,1.099
							C5.812,28.73,5.667,28.764,5.516,28.766z M32.243,6.934c-3.073-0.717-6.317-0.73-9.384-0.023
							c-0.625,0.146-1.252-0.247-1.397-0.875c-0.144-0.628,0.241-1.25,0.879-1.399c3.412-0.783,7.019-0.777,10.437,0.028
							c0.625,0.146,1.015,0.777,0.867,1.402c-0.086,0.379-0.353,0.672-0.69,0.812C32.738,6.97,32.493,6.993,32.243,6.934z
							 M9.463,14.574c-0.508-0.398-0.602-1.131-0.207-1.638c2.191-2.799,4.922-5.003,8.131-6.554
							c0.562-0.218,1.281-0.037,1.557,0.541c0.281,0.581,0.039,1.277-0.541,1.56c-2.881,1.396-5.338,3.376-7.305,5.89
							c-0.125,0.165-0.291,0.285-0.47,0.36C10.249,14.89,9.803,14.842,9.463,14.574z"/>
					</g>
					<g>
						<path fill="#F2F2F2" d="M28.27,49.232c-0.033-0.459,0.312-0.859,0.77-0.894c1.454-0.106,2.908-0.368,4.322-0.778
							c1.682-0.481,3.293-1.166,4.795-2.039c0.398-0.229,0.91-0.1,1.14,0.301c0.229,0.398,0.095,0.908-0.304,1.139
							c-1.618,0.939-3.359,1.682-5.169,2.203C32.299,49.604,30.732,50,29.162,50c-0.02,0-0.042,0-0.062,0
							C28.667,50,28.302,49.671,28.27,49.232z M23.991,49.792c-3.407-0.533-6.708-1.858-9.548-3.837
							c-0.377-0.262-0.469-0.782-0.207-1.16c0.263-0.38,0.781-0.469,1.164-0.207c2.629,1.834,5.691,3.064,8.849,3.559
							c0.456,0.069,0.765,0.496,0.694,0.951c-0.065,0.411-0.418,0.704-0.819,0.704C24.08,49.802,24.037,49.798,23.991,49.792z
							 M41.964,43.832c-0.313-0.335-0.3-0.863,0.035-1.18c2.328-2.191,4.16-4.935,5.3-7.934c0.165-0.429,0.648-0.64,1.075-0.482
							c0.429,0.164,0.647,0.646,0.483,1.076c-1.229,3.232-3.207,6.192-5.715,8.556c-0.16,0.151-0.367,0.228-0.572,0.228
							C42.35,44.096,42.127,44.005,41.964,43.832z M10.557,42.535c-2.343-2.594-4.022-5.62-4.994-8.996
							c-0.313-1.091-0.549-2.207-0.695-3.32c-0.061-0.457,0.258-0.876,0.714-0.936c0.45-0.078,0.876,0.258,0.937,0.714
							c0.139,1.03,0.356,2.069,0.649,3.082c0.897,3.13,2.456,5.938,4.626,8.34c0.309,0.34,0.282,0.867-0.061,1.177
							c-0.159,0.144-0.358,0.215-0.557,0.215C10.947,42.811,10.721,42.716,10.557,42.535z M49.195,31.007
							c-0.454-0.062-0.773-0.481-0.709-0.938c0.125-0.938,0.19-1.894,0.19-2.839c0-1.972-0.276-3.945-0.829-5.862
							c-0.076-0.266-0.158-0.528-0.244-0.789c-0.147-0.436,0.09-0.91,0.524-1.055c0.431-0.154,0.91,0.088,1.056,0.524
							c0.096,0.283,0.184,0.572,0.266,0.859c0.594,2.064,0.896,4.193,0.896,6.322c0,1.022-0.07,2.055-0.211,3.066
							c-0.055,0.417-0.414,0.72-0.822,0.72C49.271,31.014,49.232,31.012,49.195,31.007z M5.521,25.953
							c-0.461-0.047-0.795-0.452-0.752-0.91c0.332-3.429,1.459-6.803,3.271-9.754c0.238-0.393,0.751-0.51,1.146-0.276
							C9.58,15.255,9.7,15.767,9.46,16.16c-1.677,2.736-2.726,5.864-3.03,9.042c-0.045,0.431-0.406,0.753-0.83,0.753
							C5.57,25.955,5.545,25.954,5.521,25.953z M45.594,16.215c-1.662-2.73-3.968-5.087-6.672-6.816
							c-0.388-0.247-0.5-0.763-0.251-1.151c0.249-0.391,0.765-0.502,1.149-0.253c2.918,1.866,5.404,4.408,7.195,7.354
							c0.238,0.394,0.115,0.908-0.279,1.145c-0.137,0.084-0.286,0.123-0.434,0.123C46.021,16.617,45.749,16.473,45.594,16.215z
							 M11.236,12.388c-0.327-0.324-0.334-0.851-0.012-1.179c2.452-2.497,5.373-4.352,8.684-5.518
							c0.431-0.156,0.91,0.077,1.064,0.509c0.151,0.434-0.076,0.911-0.511,1.063c-3.069,1.078-5.776,2.8-8.049,5.113
							c-0.163,0.167-0.378,0.249-0.595,0.249C11.607,12.625,11.398,12.546,11.236,12.388z M34.613,7.282
							c-3.043-1.087-6.312-1.461-9.473-1.098c-0.442,0.042-0.869-0.278-0.92-0.734c-0.056-0.457,0.275-0.872,0.731-0.923
							c3.412-0.385,6.94,0.012,10.219,1.186c0.437,0.154,0.66,0.631,0.506,1.065c-0.122,0.341-0.444,0.553-0.784,0.553
							C34.799,7.331,34.705,7.314,34.613,7.282z"/>
					</g>
				</g>
			</g>
		</g>
		
			<radialGradient id="SVGID_2_" cx="310.4961" cy="-344.2236" r="20.8328" gradientTransform="matrix(-1 0 0 -1 338 -317)" gradientUnits="userSpaceOnUse">
			<stop  offset="0.908" style="stop-color:#1377FF"/>
			<stop  offset="0.9452" style="stop-color:#1376FD"/>
			<stop  offset="0.9615" style="stop-color:#1273F6"/>
			<stop  offset="0.9737" style="stop-color:#116DE9"/>
			<stop  offset="0.9838" style="stop-color:#1064D7"/>
			<stop  offset="0.9926" style="stop-color:#0E59C0"/>
			<stop  offset="1" style="stop-color:#0C4DA6"/>
		</radialGradient>
		<circle fill="url(#SVGID_2_)" cx="27.504" cy="27.224" r="20.833"/>
	</g>
	<g>
		<path fill="#FFFFFF" d="M32.307,18.436h7.752v16.44h-7.97c-0.733,0-1.457-0.094-2.146-0.278c-0.703-0.183-1.325-0.467-1.873-0.852
			c-0.539-0.381-0.977-0.877-1.299-1.49c-0.321-0.602-0.479-1.32-0.479-2.154c0-1.028,0.244-1.906,0.743-2.638
			c0.497-0.728,1.247-1.24,2.257-1.53c-0.743-0.351-1.299-0.803-1.677-1.356c-0.375-0.552-0.563-1.244-0.563-2.071
			c0-0.767,0.127-1.414,0.377-1.93c0.257-0.525,0.613-0.941,1.072-1.254c0.467-0.315,1.015-0.542,1.659-0.679
			C30.812,18.503,31.52,18.436,32.307,18.436 M32.773,25.079h3.666v-3.842h-3.389c-0.322,0-0.634,0.021-0.931,0.082
			c-0.304,0.05-0.565,0.147-0.798,0.287c-0.231,0.134-0.418,0.326-0.557,0.572c-0.137,0.245-0.201,0.56-0.201,0.943
			c0,0.688,0.201,1.192,0.617,1.495C31.602,24.926,32.132,25.078,32.773,25.079L32.773,25.079z M32.573,32.078h3.864V27.55h-3.936
			c-0.781,0-1.411,0.179-1.888,0.538c-0.476,0.366-0.716,0.969-0.716,1.814c0,0.433,0.072,0.789,0.219,1.065
			c0.146,0.278,0.346,0.497,0.589,0.654c0.244,0.168,0.528,0.28,0.854,0.351C31.879,32.044,32.218,32.077,32.573,32.078
			L32.573,32.078z"/>
		<path fill="#FFFFFF" d="M21.131,32.021c0.493-0.478,0.809-1.371,0.811-2.311h-8.59c-0.059-0.922,0.015-1.805,0.229-2.649
			c0.215-0.846,0.56-1.601,1.045-2.259c0.487-0.66,1.103-1.187,1.854-1.578c0.76-0.395,1.64-0.589,2.646-0.589
			c0.911,0,1.736,0.162,2.482,0.484c0.748,0.325,1.39,0.765,1.93,1.327c0.538,0.557,0.949,1.224,1.245,1.995
			c0.293,0.769,0.44,1.601,0.44,2.492c0,0.92-0.144,1.768-0.427,2.535c-0.288,0.771-0.692,1.428-1.21,1.984
			c-0.531,0.551-1.165,0.977-1.923,1.279c-0.757,0.3-1.601,0.451-2.539,0.451c-1.345,0-2.5-0.309-3.446-0.926
			c-0.959-0.619-1.66-1.64-2.121-3.072h2.879c0.109,0.367,0.399,0.722,0.873,1.055c0.478,0.334,1.047,0.5,1.707,0.5
			C19.936,32.74,20.643,32.5,21.131,32.021 M16.623,27.65h5.318c-0.014-0.231-0.064-0.494-0.148-0.784
			c-0.084-0.296-0.227-0.575-0.438-0.839c-0.213-0.258-0.49-0.478-0.83-0.655c-0.346-0.179-0.778-0.267-1.301-0.267
			c-0.804,0-1.459,0.233-1.849,0.661C16.984,26.199,16.7,26.817,16.623,27.65z"/>
		<rect x="15.947" y="19.538" fill="#FFFFFF" width="6.662" height="1.622"/>
	</g>
</g>
</svg>
