<?xml version="1.0" encoding="utf-8"?>
<!-- Generator: Adobe Illustrator 15.0.0, SVG Export Plug-In . SVG Version: 6.00 Build 0)  -->
<!DOCTYPE svg PUBLIC "-//W3C//DTD SVG 1.1//EN" "http://www.w3.org/Graphics/SVG/1.1/DTD/svg11.dtd">
<svg version="1.1" id="Calque_1" xmlns="http://www.w3.org/2000/svg" xmlns:xlink="http://www.w3.org/1999/xlink" x="0px" y="0px"
	 width="150px" height="85px" viewBox="0 0 150 85" enable-background="new 0 0 150 85" xml:space="preserve">
<g>
	<g>
		<path fill="#222221" d="M88.116,11.614C85.19,5.512,78.942,1.571,72.201,1.571c-6.739,0-12.985,3.941-15.911,10.043l-0.135-0.066
			c1.434-2.986,3.66-5.512,6.444-7.309c2.862-1.844,6.183-2.82,9.602-2.82c3.421,0,6.741,0.977,9.605,2.82
			c2.782,1.795,5.013,4.322,6.444,7.309L88.116,11.614z"/>
	</g>
	<path fill="#222221" d="M91.887,14.577v-1.342h35.919v1.342h-17.287v46.685h-1.347V14.577H91.887z"/>
	<path fill="#222221" d="M22.591,59.916h28.998v1.346H22.495L22.591,59.916z M21.927,35.567h27.58v1.344h-27.58 M22.305,13.235
		h29.256v1.342H22.401L22.305,13.235z"/>
	<path fill="#222221" d="M73.53,28.844c-8.033-2.451-16.17-3.766-16.517-14.25v-0.066h31.685v-1.344H55.665v1.41
		c0.318,11.447,8.463,13.258,16.116,15.543c7.401,2.33,16.818,3.365,16.818,15.787c0,10.609-8.073,14.928-15.608,14.928
		c-10.224,0-17.422-5.438-17.422-20.187h-1.345c-0.205,15.527,7.868,21.912,18.767,21.912c8.207,0,16.952-4.918,16.952-16.562
		C89.943,33.159,82.476,31.776,73.53,28.844z"/>
	<path fill="#222221" d="M0.671,79.096c0.391-0.4,0.888-0.6,1.49-0.6c0.808,0,1.396,0.268,1.771,0.803
		c0.206,0.299,0.314,0.602,0.333,0.904H3.251c-0.064-0.236-0.146-0.414-0.248-0.531c-0.182-0.215-0.447-0.322-0.805-0.322
		c-0.359,0-0.646,0.15-0.854,0.447c-0.209,0.297-0.314,0.717-0.314,1.26s0.11,0.953,0.328,1.223c0.222,0.273,0.5,0.41,0.838,0.41
		c0.349,0,0.611-0.119,0.795-0.352c0.1-0.125,0.184-0.314,0.252-0.566h1.008c-0.085,0.529-0.307,0.959-0.664,1.293
		c-0.358,0.33-0.814,0.5-1.371,0.5c-0.689,0-1.231-0.227-1.625-0.672C0.196,82.441,0,81.83,0,81.049
		C0,80.203,0.224,79.553,0.671,79.096z"/>
	<path fill="#222221" d="M13.571,78.705c0.18,0.078,0.331,0.193,0.456,0.34c0.103,0.121,0.183,0.258,0.244,0.408
		c0.058,0.15,0.089,0.322,0.089,0.51c0,0.23-0.059,0.459-0.174,0.68c-0.115,0.225-0.309,0.383-0.573,0.471
		c0.222,0.092,0.378,0.219,0.472,0.385c0.093,0.166,0.137,0.42,0.137,0.76v0.326c0,0.223,0.01,0.373,0.029,0.451
		c0.027,0.125,0.092,0.217,0.193,0.275v0.123h-1.117c-0.03-0.107-0.052-0.193-0.066-0.26c-0.027-0.137-0.039-0.275-0.043-0.42
		l-0.006-0.449c-0.004-0.311-0.057-0.516-0.159-0.621c-0.104-0.104-0.3-0.154-0.583-0.154h-0.994v1.904h-0.989v-4.852h2.319
		C13.138,78.588,13.394,78.631,13.571,78.705z M11.476,79.414v1.312h1.094c0.219,0,0.384-0.025,0.489-0.078
		c0.196-0.094,0.29-0.275,0.29-0.551c0-0.297-0.094-0.496-0.279-0.598c-0.104-0.059-0.259-0.086-0.469-0.086H11.476z"/>
	<path fill="#222221" d="M24.308,79.441h-2.566v1.035h2.354v0.842h-2.354v1.244h2.685v0.871h-3.675v-4.852h3.557V79.441z"/>
	<path fill="#222221" d="M31.98,78.582h1.149l1.714,4.852h-1.1l-0.321-0.998h-1.781l-0.33,0.998h-1.063L31.98,78.582z M31.915,81.6
		h1.242l-0.611-1.91L31.915,81.6z"/>
	<path fill="#222221" d="M43.877,78.582v0.859h-1.45v3.992h-1.012v-3.992h-1.453v-0.859H43.877z"/>
	<path fill="#222221" d="M50.782,83.434h-1.01v-4.852h1.01V83.434z"/>
	<path fill="#222221" d="M59.966,78.582h1.052l-1.653,4.852h-0.957l-1.641-4.852h1.084l1.053,3.684L59.966,78.582z"/>
	<path fill="#222221" d="M67.929,83.434h-1.012v-4.852h1.012V83.434z"/>
	<path fill="#222221" d="M77.791,78.582v0.859h-1.452v3.992h-1.012v-3.992h-1.452v-0.859H77.791z"/>
	<path fill="#222221" d="M86.536,78.582h1.15l-1.622,3.033v1.818h-1.011v-1.812l-1.675-3.039h1.193l1.002,2.111L86.536,78.582z"/>
	<path fill="#222221" d="M103.914,78.705c0.179,0.078,0.33,0.193,0.453,0.34c0.101,0.121,0.186,0.258,0.244,0.408
		c0.06,0.15,0.09,0.322,0.09,0.51c0,0.23-0.057,0.459-0.172,0.68c-0.118,0.225-0.309,0.383-0.573,0.471
		c0.222,0.092,0.378,0.219,0.472,0.385c0.09,0.166,0.137,0.42,0.137,0.76v0.326c0,0.223,0.012,0.373,0.028,0.451
		c0.026,0.125,0.092,0.217,0.193,0.275v0.123h-1.117c-0.028-0.107-0.053-0.193-0.066-0.26c-0.026-0.137-0.04-0.275-0.043-0.42
		l-0.004-0.449c-0.005-0.311-0.06-0.516-0.163-0.621c-0.104-0.104-0.295-0.154-0.579-0.154h-0.996v1.904h-0.987v-4.852h2.319
		C103.478,78.588,103.735,78.631,103.914,78.705z M101.817,79.414v1.312h1.095c0.219,0,0.382-0.025,0.49-0.078
		c0.193-0.094,0.29-0.275,0.29-0.551c0-0.297-0.095-0.496-0.28-0.598c-0.104-0.059-0.263-0.086-0.47-0.086H101.817z"/>
	<path fill="#222221" d="M111.978,83.434h-1.01v-4.852h1.01V83.434z"/>
	<path fill="#222221" d="M119.049,81.939c0.033,0.225,0.095,0.389,0.187,0.5c0.167,0.199,0.453,0.301,0.855,0.301
		c0.243,0,0.441-0.025,0.593-0.08c0.284-0.098,0.431-0.289,0.431-0.566c0-0.162-0.073-0.283-0.215-0.373
		c-0.141-0.086-0.365-0.162-0.671-0.227l-0.52-0.115c-0.512-0.115-0.863-0.238-1.056-0.375c-0.324-0.225-0.486-0.574-0.486-1.053
		c0-0.434,0.158-0.797,0.477-1.086c0.315-0.287,0.782-0.432,1.396-0.432c0.517,0,0.952,0.137,1.315,0.408
		c0.363,0.27,0.552,0.664,0.571,1.18h-0.97c-0.017-0.287-0.146-0.49-0.389-0.611c-0.158-0.082-0.358-0.123-0.595-0.123
		c-0.266,0-0.479,0.051-0.634,0.154c-0.158,0.107-0.235,0.254-0.235,0.441c0,0.172,0.077,0.301,0.232,0.389
		c0.1,0.055,0.312,0.119,0.64,0.199l0.844,0.199c0.371,0.09,0.646,0.209,0.833,0.355c0.287,0.229,0.431,0.559,0.431,0.99
		c0,0.443-0.169,0.811-0.512,1.107c-0.341,0.289-0.82,0.441-1.444,0.441c-0.635,0-1.135-0.146-1.497-0.434
		c-0.368-0.289-0.548-0.688-0.548-1.191H119.049z"/>
	<path fill="#222221" d="M129.122,83.434h-1.012v-4.852h1.012V83.434z"/>
	<path fill="#222221" d="M135.46,78.582h1.054l1.924,3.379v-3.379h0.938v4.852h-1.007l-1.974-3.443v3.443h-0.936V78.582z"/>
	<path fill="#222221" d="M148.965,80.098c-0.073-0.334-0.259-0.566-0.557-0.701c-0.164-0.072-0.351-0.109-0.554-0.109
		c-0.387,0-0.705,0.146-0.955,0.445c-0.252,0.295-0.374,0.738-0.374,1.332c0,0.6,0.134,1.021,0.405,1.271
		c0.269,0.248,0.577,0.371,0.922,0.371c0.34,0,0.617-0.098,0.832-0.293s0.352-0.451,0.4-0.77h-1.107v-0.811H150v2.6h-0.686
		l-0.104-0.605c-0.199,0.23-0.371,0.393-0.523,0.486c-0.268,0.164-0.597,0.25-0.983,0.25c-0.639,0-1.165-0.227-1.573-0.672
		c-0.427-0.449-0.639-1.059-0.639-1.838c0-0.783,0.217-1.416,0.648-1.889s1-0.709,1.712-0.709c0.617,0,1.107,0.154,1.483,0.465
		c0.372,0.316,0.586,0.709,0.641,1.176H148.965z"/>
</g>
</svg>
