<?xml version="1.0" encoding="utf-8"?>
<!-- Generator: Adobe Illustrator 15.0.0, SVG Export Plug-In . SVG Version: 6.00 Build 0)  -->
<!DOCTYPE svg PUBLIC "-//W3C//DTD SVG 1.1//EN" "http://www.w3.org/Graphics/SVG/1.1/DTD/svg11.dtd">
<svg version="1.1" id="Calque_1" xmlns="http://www.w3.org/2000/svg" xmlns:xlink="http://www.w3.org/1999/xlink" x="0px" y="0px"
	 width="150px" height="80px" viewBox="0 0 150 80" enable-background="new 0 0 150 80" xml:space="preserve">
<g>
	<g>
		<path fill="#FFFFFF" d="M87.366,10.487c-2.759-5.752-8.649-9.469-15.005-9.469c-6.353,0-12.242,3.716-15,9.469l-0.127-0.062
			c1.352-2.816,3.451-5.197,6.076-6.891c2.698-1.738,5.828-2.659,9.051-2.659c3.225,0,6.355,0.921,9.056,2.659
			c2.623,1.692,4.727,4.075,6.076,6.891L87.366,10.487z"/>
	</g>
	<path fill="#FFFFFF" d="M90.921,13.281v-1.265h33.864v1.265h-16.299v44.016h-1.27V13.281H90.921z"/>
	<path fill="#FFFFFF" d="M25.59,56.028h27.339v1.269H25.5L25.59,56.028z M24.964,33.07h26.002v1.267H24.964 M25.32,12.016h27.582
		v1.265H25.411L25.32,12.016z"/>
	<path fill="#FFFFFF" d="M73.614,26.732c-7.573-2.311-15.244-3.55-15.571-13.435v-0.063h29.872v-1.267H56.772v1.33
		c0.3,10.792,7.979,12.499,15.193,14.654c6.979,2.197,15.856,3.172,15.856,14.886c0,10.002-7.611,14.073-14.715,14.073
		c-9.638,0-16.424-5.126-16.424-19.034h-1.268c-0.193,14.641,7.418,20.66,17.692,20.66c7.738,0,15.983-4.637,15.983-15.614
		C89.089,30.8,82.048,29.496,73.614,26.732z"/>
	<path fill="#FFFFFF" d="M4.924,74.111c0.369-0.378,0.837-0.565,1.405-0.565c0.761,0,1.316,0.252,1.669,0.757
		c0.194,0.281,0.297,0.566,0.314,0.853H7.356c-0.061-0.223-0.138-0.391-0.234-0.501c-0.171-0.203-0.421-0.304-0.759-0.304
		c-0.338,0-0.608,0.142-0.805,0.422c-0.197,0.279-0.296,0.676-0.296,1.188s0.104,0.898,0.31,1.152
		c0.209,0.258,0.471,0.387,0.79,0.387c0.329,0,0.576-0.112,0.75-0.331c0.094-0.118,0.173-0.297,0.237-0.534h0.95
		c-0.08,0.499-0.289,0.904-0.626,1.219c-0.338,0.312-0.768,0.472-1.293,0.472c-0.65,0-1.161-0.214-1.532-0.634
		c-0.372-0.425-0.557-1.002-0.557-1.738C4.292,75.155,4.502,74.542,4.924,74.111z"/>
	<path fill="#FFFFFF" d="M17.086,73.743c0.169,0.073,0.312,0.182,0.43,0.32c0.097,0.114,0.172,0.243,0.23,0.385
		c0.054,0.142,0.084,0.304,0.084,0.48c0,0.217-0.056,0.433-0.164,0.641c-0.109,0.212-0.291,0.361-0.541,0.443
		c0.209,0.087,0.356,0.207,0.445,0.363c0.087,0.156,0.129,0.396,0.129,0.716v0.308c0,0.21,0.009,0.352,0.027,0.426
		c0.026,0.118,0.087,0.204,0.183,0.26v0.116h-1.053c-0.029-0.102-0.049-0.183-0.063-0.245c-0.025-0.129-0.037-0.26-0.041-0.396
		l-0.005-0.423c-0.003-0.293-0.053-0.486-0.15-0.586c-0.099-0.098-0.283-0.146-0.55-0.146h-0.937v1.796h-0.933v-4.574h2.187
		C16.678,73.632,16.919,73.673,17.086,73.743z M15.111,74.411v1.237h1.031c0.207,0,0.362-0.023,0.461-0.073
		c0.185-0.089,0.273-0.26,0.273-0.52c0-0.28-0.088-0.468-0.263-0.563c-0.098-0.056-0.244-0.081-0.442-0.081H15.111z"/>
	<path fill="#FFFFFF" d="M27.208,74.437h-2.419v0.977h2.219v0.793h-2.219v1.174h2.531v0.821h-3.464v-4.574h3.353V74.437z"/>
	<path fill="#FFFFFF" d="M34.442,73.627h1.084l1.616,4.574h-1.037l-0.303-0.941h-1.679l-0.311,0.941h-1.003L34.442,73.627z
		 M34.381,76.472h1.171l-0.576-1.801L34.381,76.472z"/>
	<path fill="#FFFFFF" d="M45.658,73.627v0.81h-1.367v3.765h-0.954v-3.765h-1.37v-0.81H45.658z"/>
	<path fill="#FFFFFF" d="M52.168,78.201h-0.952v-4.574h0.952V78.201z"/>
	<path fill="#FFFFFF" d="M60.827,73.627h0.992l-1.559,4.574h-0.902l-1.547-4.574h1.022l0.993,3.473L60.827,73.627z"/>
	<path fill="#FFFFFF" d="M68.334,78.201H67.38v-4.574h0.954V78.201z"/>
	<path fill="#FFFFFF" d="M77.632,73.627v0.81h-1.369v3.765h-0.954v-3.765h-1.369v-0.81H77.632z"/>
	<path fill="#FFFFFF" d="M85.876,73.627h1.085l-1.529,2.859v1.715h-0.953v-1.709l-1.579-2.865h1.125l0.945,1.99L85.876,73.627z"/>
	<path fill="#FFFFFF" d="M102.26,73.743c0.169,0.073,0.312,0.182,0.428,0.32c0.095,0.114,0.175,0.243,0.229,0.385
		c0.057,0.142,0.085,0.304,0.085,0.48c0,0.217-0.054,0.433-0.162,0.641c-0.111,0.212-0.291,0.361-0.54,0.443
		c0.209,0.087,0.356,0.207,0.444,0.363c0.085,0.156,0.129,0.396,0.129,0.716v0.308c0,0.21,0.011,0.352,0.026,0.426
		c0.025,0.118,0.087,0.204,0.183,0.26v0.116h-1.053c-0.027-0.102-0.05-0.183-0.063-0.245c-0.024-0.129-0.037-0.26-0.04-0.396
		l-0.004-0.423c-0.004-0.293-0.056-0.486-0.153-0.586c-0.098-0.098-0.278-0.146-0.546-0.146h-0.939v1.796h-0.931v-4.574h2.187
		C101.849,73.632,102.092,73.673,102.26,73.743z M100.283,74.411v1.237h1.032c0.206,0,0.36-0.023,0.462-0.073
		c0.183-0.089,0.273-0.26,0.273-0.52c0-0.28-0.089-0.468-0.264-0.563c-0.098-0.056-0.248-0.081-0.443-0.081H100.283z"/>
	<path fill="#FFFFFF" d="M109.862,78.201h-0.952v-4.574h0.952V78.201z"/>
	<path fill="#FFFFFF" d="M116.529,76.792c0.031,0.212,0.089,0.366,0.176,0.472c0.157,0.188,0.427,0.283,0.807,0.283
		c0.229,0,0.416-0.023,0.559-0.075c0.268-0.092,0.406-0.272,0.406-0.534c0-0.152-0.069-0.267-0.203-0.352
		c-0.133-0.081-0.344-0.153-0.632-0.214l-0.49-0.108c-0.482-0.108-0.813-0.225-0.995-0.354c-0.306-0.212-0.459-0.541-0.459-0.992
		c0-0.409,0.149-0.752,0.449-1.024c0.298-0.271,0.738-0.407,1.316-0.407c0.486,0,0.897,0.129,1.24,0.386
		c0.342,0.254,0.52,0.626,0.538,1.111h-0.914c-0.016-0.271-0.138-0.462-0.366-0.576c-0.149-0.077-0.338-0.116-0.561-0.116
		c-0.251,0-0.451,0.048-0.598,0.146c-0.149,0.102-0.223,0.24-0.223,0.417c0,0.161,0.073,0.283,0.22,0.366
		c0.094,0.052,0.295,0.112,0.603,0.188l0.796,0.188c0.35,0.085,0.609,0.197,0.785,0.336c0.271,0.215,0.406,0.526,0.406,0.934
		c0,0.418-0.159,0.764-0.482,1.044c-0.321,0.272-0.773,0.416-1.362,0.416c-0.598,0-1.069-0.139-1.411-0.409
		c-0.347-0.272-0.517-0.647-0.517-1.123H116.529z"/>
	<path fill="#FFFFFF" d="M126.026,78.201h-0.954v-4.574h0.954V78.201z"/>
	<path fill="#FFFFFF" d="M132.001,73.627h0.994l1.813,3.186v-3.186h0.885v4.574h-0.949l-1.861-3.247v3.247h-0.882V73.627z"/>
	<path fill="#FFFFFF" d="M144.733,75.056c-0.069-0.314-0.244-0.534-0.524-0.661c-0.155-0.068-0.331-0.104-0.522-0.104
		c-0.364,0-0.665,0.139-0.9,0.42c-0.237,0.278-0.353,0.696-0.353,1.256c0,0.565,0.126,0.963,0.382,1.199
		c0.254,0.233,0.544,0.35,0.869,0.35c0.32,0,0.582-0.092,0.785-0.276c0.202-0.184,0.331-0.425,0.377-0.726h-1.044V75.75h1.907v2.451
		h-0.646l-0.098-0.571c-0.188,0.218-0.351,0.37-0.494,0.459c-0.252,0.154-0.562,0.235-0.927,0.235c-0.603,0-1.099-0.214-1.483-0.634
		c-0.402-0.423-0.602-0.998-0.602-1.732c0-0.738,0.204-1.335,0.611-1.78c0.406-0.446,0.942-0.669,1.613-0.669
		c0.582,0,1.044,0.146,1.398,0.438c0.352,0.298,0.553,0.668,0.604,1.108H144.733z"/>
</g>
</svg>
