<?xml version="1.0" encoding="utf-8"?>
<!-- Generator: Adobe Illustrator 15.0.0, SVG Export Plug-In . SVG Version: 6.00 Build 0)  -->
<!DOCTYPE svg PUBLIC "-//W3C//DTD SVG 1.1//EN" "http://www.w3.org/Graphics/SVG/1.1/DTD/svg11.dtd">
<svg version="1.1" id="Calque_1" xmlns="http://www.w3.org/2000/svg" xmlns:xlink="http://www.w3.org/1999/xlink" x="0px" y="0px"
	 width="53px" height="53px" viewBox="0 0 55 55" enable-background="new 0 0 55 55" xml:space="preserve">
<g>
	<g>
		<g>
			<g>
				<g>
					
						<radialGradient id="SVGID_1_" cx="310.2637" cy="-344.2246" r="25.0002" gradientTransform="matrix(-1 0 0 -1 338 -317)" gradientUnits="userSpaceOnUse">
						<stop  offset="0.7914" style="stop-color:#6AA8DD"/>
						<stop  offset="0.8456" style="stop-color:#69A6DB"/>
						<stop  offset="0.8693" style="stop-color:#66A1D4"/>
						<stop  offset="0.887" style="stop-color:#6097C7"/>
						<stop  offset="0.9016" style="stop-color:#578AB5"/>
						<stop  offset="0.908" style="stop-color:#5282AB"/>
						<stop  offset="0.9571" style="stop-color:#6AA8DD"/>
						<stop  offset="0.9937" style="stop-color:#6AA8DD"/>
						<stop  offset="1" style="stop-color:#6AA8DD"/>
					</radialGradient>
					<circle fill="url(#SVGID_1_)" cx="27.736" cy="27.224" r="25"/>
					<g opacity="0.35">
						<path d="M26.473,50.359c-0.642-0.034-1.139-0.584-1.1-1.226c0.031-0.645,0.592-1.142,1.225-1.103
							c3.131,0.164,6.354-0.391,9.25-1.612c0.586-0.254,1.276,0.026,1.527,0.622c0.253,0.591-0.029,1.275-0.621,1.525
							c-1.749,0.738-3.593,1.259-5.482,1.552C29.68,50.364,28.064,50.447,26.473,50.359z M21.292,49.482
							c-3.354-0.974-6.507-2.731-9.11-5.086c-0.478-0.43-0.514-1.172-0.084-1.648c0.432-0.477,1.174-0.514,1.647-0.081
							c2.343,2.117,5.176,3.699,8.196,4.573c0.621,0.18,0.977,0.828,0.795,1.445c-0.127,0.451-0.504,0.762-0.938,0.83
							C21.634,49.539,21.461,49.529,21.292,49.482z M39.704,45.727c-0.379-0.522-0.263-1.248,0.259-1.629
							c2.546-1.852,4.678-4.301,6.162-7.086c0.305-0.566,1.01-0.783,1.579-0.48c0.569,0.306,0.784,1.012,0.481,1.58
							c-1.651,3.093-4.022,5.814-6.854,7.873c-0.154,0.113-0.327,0.184-0.503,0.211C40.409,46.26,39.969,46.092,39.704,45.727z
							 M8.71,40.452c-2.022-2.904-3.328-6.166-3.874-9.693c-0.174-1.137-0.266-2.297-0.271-3.445
							c-0.002-0.645,0.521-1.169,1.16-1.172c0.646-0.003,1.166,0.516,1.172,1.163c0.006,1.031,0.09,2.074,0.248,3.097
							c0.488,3.173,1.66,6.108,3.479,8.716c0.367,0.528,0.237,1.257-0.291,1.625c-0.149,0.104-0.317,0.168-0.487,0.194
							C9.419,41.004,8.973,40.83,8.71,40.452z M48.678,34.031c-0.621-0.167-0.996-0.831-0.828-1.455
							c0.756-2.801,0.9-5.735,0.457-8.629c-0.041-0.267-0.103-0.629-0.152-0.894c-0.127-0.633,0.254-1.464,0.89-1.562
							c0.017-0.001,0.03-0.006,0.045-0.006c0.619-0.098,1.234,0.504,1.353,1.119c0.06,0.294,0.141,0.782,0.187,1.083
							c0.497,3.217,0.324,6.427-0.517,9.542c-0.123,0.461-0.506,0.782-0.946,0.851C49.009,34.104,48.841,34.07,48.678,34.031z
							 M46.766,18.739c-1.274-2.869-3.23-5.46-5.656-7.487c-0.492-0.414-0.558-1.15-0.145-1.645c0.414-0.49,1.146-0.557,1.645-0.146
							c2.691,2.255,4.871,5.136,6.291,8.329c0.262,0.59-0.006,1.278-0.594,1.542c-0.096,0.041-0.195,0.069-0.296,0.083
							C47.502,19.496,46.984,19.231,46.766,18.739z M6.012,23.493c-0.629-0.145-1.02-0.77-0.88-1.396
							c0.779-3.41,2.351-6.661,4.55-9.396c0.404-0.501,1.141-0.584,1.643-0.176c0.5,0.402,0.58,1.135,0.176,1.639
							c-1.979,2.461-3.393,5.383-4.087,8.449c-0.112,0.48-0.503,0.823-0.963,0.896C6.311,23.528,6.163,23.525,6.012,23.493z
							 M37.162,8.646c-2.812-1.431-5.959-2.212-9.105-2.255c-0.643-0.008-1.158-0.538-1.15-1.183
							c0.01-0.644,0.534-1.157,1.187-1.149c3.5,0.05,7.003,0.915,10.132,2.508c0.574,0.293,0.801,0.996,0.508,1.571
							c-0.174,0.346-0.502,0.566-0.859,0.622C37.639,8.796,37.395,8.763,37.162,8.646z M13.221,10.646
							c-0.402-0.508-0.311-1.242,0.191-1.638c2.791-2.199,5.973-3.69,9.453-4.434c0.602-0.078,1.25,0.268,1.385,0.896
							c0.135,0.631-0.266,1.25-0.898,1.387c-3.129,0.67-5.985,2.008-8.496,3.984c-0.16,0.129-0.35,0.207-0.541,0.237
							C13.911,11.14,13.488,10.989,13.221,10.646z"/>
					</g>
					<g opacity="0.35">
						<path d="M32.011,49.997c-0.632,0.119-1.247-0.296-1.36-0.929c-0.123-0.637,0.301-1.25,0.927-1.362
							c3.083-0.583,6.081-1.892,8.603-3.767c0.512-0.388,1.246-0.279,1.631,0.242c0.388,0.514,0.274,1.245-0.24,1.627
							c-1.521,1.135-3.188,2.08-4.954,2.812C35.125,49.239,33.577,49.703,32.011,49.997z M26.771,50.377
							c-3.494-0.148-6.973-1.105-10.06-2.775c-0.563-0.304-0.774-1.014-0.474-1.578c0.308-0.567,1.02-0.781,1.582-0.473
							c2.779,1.501,5.906,2.363,9.051,2.493c0.641,0.028,1.14,0.57,1.114,1.215c-0.02,0.468-0.31,0.859-0.717,1.03
							C27.117,50.35,26.945,50.381,26.771,50.377z M43.76,42.352c-0.49-0.418-0.553-1.152-0.137-1.644
							c2.031-2.406,3.521-5.29,4.301-8.351c0.16-0.621,0.794-1,1.419-0.84c0.625,0.158,1.001,0.793,0.843,1.416
							c-0.869,3.398-2.521,6.607-4.783,9.28c-0.121,0.146-0.274,0.254-0.44,0.322C44.57,42.699,44.104,42.641,43.76,42.352z
							 M12.4,44.596c-2.658-2.339-4.697-5.195-6.067-8.49c-0.44-1.066-0.806-2.168-1.083-3.285c-0.156-0.625,0.23-1.258,0.85-1.411
							c0.623-0.156,1.256,0.224,1.414,0.849c0.248,1,0.58,1.992,0.979,2.952c1.227,2.963,3.064,5.537,5.451,7.638
							c0.482,0.426,0.531,1.163,0.104,1.646c-0.12,0.14-0.271,0.241-0.427,0.308C13.225,44.965,12.747,44.902,12.4,44.596z
							 M49.695,28.854c-0.641-0.017-1.161-0.571-1.149-1.216c0.069-2.898-0.487-5.785-1.608-8.49
							c-0.102-0.248-0.25-0.586-0.361-0.834c-0.271-0.582-0.104-1.481,0.494-1.726c0.014-0.005,0.027-0.013,0.041-0.019
							c0.578-0.24,1.318,0.199,1.582,0.768c0.127,0.271,0.322,0.727,0.438,1.007c1.247,3.008,1.841,6.165,1.767,9.392
							c-0.012,0.476-0.308,0.879-0.719,1.051C50.034,28.846,49.864,28.854,49.695,28.854z M44.201,14.456
							c-1.922-2.484-4.439-4.537-7.275-5.929c-0.576-0.282-0.816-0.983-0.533-1.562c0.283-0.573,0.981-0.812,1.564-0.532
							c3.15,1.548,5.951,3.83,8.091,6.592c0.392,0.511,0.302,1.243-0.212,1.64c-0.081,0.062-0.171,0.113-0.266,0.152
							C45.094,15.017,44.533,14.88,44.201,14.456z M5.748,28.766c-0.643,0.01-1.172-0.502-1.186-1.147
							c-0.055-3.496,0.701-7.026,2.185-10.208c0.271-0.581,0.97-0.835,1.551-0.559c0.583,0.271,0.834,0.965,0.562,1.548
							c-1.336,2.861-2.016,6.035-1.963,9.18c0.008,0.494-0.291,0.918-0.722,1.099C6.046,28.73,5.9,28.764,5.748,28.766z
							 M32.475,6.934c-3.074-0.717-6.316-0.73-9.383-0.023c-0.625,0.146-1.253-0.247-1.398-0.875
							c-0.144-0.628,0.242-1.25,0.88-1.399c3.411-0.783,7.018-0.777,10.436,0.028c0.628,0.146,1.015,0.777,0.868,1.402
							c-0.087,0.379-0.354,0.672-0.689,0.812C32.971,6.97,32.727,6.993,32.475,6.934z M9.695,14.574
							c-0.508-0.398-0.602-1.131-0.207-1.638c2.191-2.799,4.922-5.003,8.131-6.554c0.561-0.218,1.279-0.037,1.557,0.541
							c0.28,0.581,0.039,1.277-0.541,1.56c-2.882,1.396-5.338,3.376-7.306,5.89c-0.126,0.165-0.289,0.285-0.47,0.36
							C10.48,14.89,10.034,14.842,9.695,14.574z"/>
					</g>
					<g>
						<path fill="#F2F2F2" d="M28.5,49.232c-0.033-0.459,0.312-0.859,0.77-0.894c1.455-0.106,2.908-0.368,4.322-0.778
							c1.682-0.481,3.293-1.166,4.794-2.039c0.398-0.229,0.911-0.1,1.14,0.301c0.231,0.398,0.096,0.908-0.303,1.139
							c-1.617,0.939-3.358,1.682-5.168,2.203C32.529,49.604,30.964,50,29.396,50c-0.022,0-0.045,0-0.065,0
							C28.898,50,28.534,49.671,28.5,49.232z M24.223,49.792c-3.406-0.533-6.707-1.858-9.548-3.837
							c-0.374-0.262-0.469-0.782-0.207-1.16c0.263-0.38,0.78-0.469,1.164-0.207c2.63,1.834,5.692,3.064,8.849,3.559
							c0.455,0.069,0.766,0.496,0.695,0.951c-0.066,0.411-0.419,0.704-0.82,0.704C24.312,49.802,24.27,49.798,24.223,49.792z
							 M42.195,43.832c-0.312-0.335-0.299-0.863,0.037-1.18c2.326-2.191,4.16-4.935,5.3-7.934c0.165-0.429,0.647-0.64,1.075-0.482
							c0.429,0.164,0.646,0.646,0.482,1.076c-1.229,3.232-3.206,6.192-5.716,8.556c-0.159,0.151-0.365,0.228-0.569,0.228
							C42.581,44.096,42.359,44.005,42.195,43.832z M10.789,42.535c-2.344-2.594-4.023-5.62-4.995-8.996
							c-0.313-1.091-0.548-2.207-0.694-3.32c-0.061-0.457,0.258-0.876,0.713-0.936c0.451-0.078,0.875,0.258,0.938,0.714
							c0.139,1.03,0.355,2.069,0.648,3.082c0.898,3.13,2.457,5.938,4.627,8.34c0.307,0.34,0.281,0.867-0.061,1.177
							c-0.16,0.144-0.359,0.215-0.557,0.215C11.18,42.811,10.952,42.716,10.789,42.535z M49.427,31.007
							c-0.454-0.062-0.772-0.481-0.708-0.938c0.125-0.938,0.19-1.894,0.19-2.839c0-1.972-0.277-3.945-0.83-5.862
							c-0.076-0.266-0.156-0.528-0.244-0.789c-0.147-0.436,0.089-0.91,0.524-1.055c0.431-0.154,0.91,0.088,1.056,0.524
							c0.096,0.283,0.183,0.572,0.267,0.859c0.594,2.064,0.896,4.193,0.896,6.322c0,1.022-0.07,2.055-0.211,3.066
							c-0.054,0.417-0.414,0.72-0.823,0.72C49.505,31.014,49.466,31.012,49.427,31.007z M5.75,25.953
							c-0.458-0.047-0.794-0.452-0.749-0.91c0.332-3.429,1.459-6.803,3.271-9.754c0.24-0.393,0.752-0.51,1.146-0.276
							c0.396,0.242,0.515,0.754,0.274,1.147c-1.676,2.736-2.726,5.864-3.03,9.042c-0.044,0.431-0.406,0.753-0.829,0.753
							C5.807,25.955,5.777,25.954,5.75,25.953z M45.826,16.215c-1.662-2.73-3.969-5.087-6.672-6.816
							c-0.389-0.247-0.5-0.763-0.252-1.151c0.25-0.391,0.765-0.502,1.149-0.253c2.919,1.866,5.405,4.408,7.195,7.354
							c0.239,0.394,0.116,0.908-0.278,1.145c-0.137,0.084-0.287,0.123-0.434,0.123C46.255,16.617,45.98,16.473,45.826,16.215z
							 M11.471,12.388c-0.328-0.324-0.334-0.851-0.013-1.179c2.452-2.497,5.372-4.352,8.683-5.518
							c0.432-0.156,0.911,0.077,1.063,0.509c0.151,0.434-0.075,0.911-0.509,1.063c-3.07,1.078-5.778,2.8-8.051,5.113
							c-0.162,0.167-0.377,0.249-0.593,0.249C11.841,12.625,11.632,12.546,11.471,12.388z M34.846,7.282
							c-3.044-1.087-6.312-1.461-9.473-1.098c-0.443,0.042-0.87-0.278-0.921-0.734c-0.056-0.457,0.276-0.872,0.731-0.923
							c3.412-0.385,6.941,0.012,10.219,1.186c0.437,0.154,0.66,0.631,0.507,1.065c-0.123,0.341-0.444,0.553-0.784,0.553
							C35.031,7.331,34.938,7.314,34.846,7.282z"/>
					</g>
				</g>
			</g>
		</g>
		
			<radialGradient id="SVGID_2_" cx="310.2646" cy="-344.2236" r="20.8328" gradientTransform="matrix(-1 0 0 -1 338 -317)" gradientUnits="userSpaceOnUse">
			<stop  offset="0.908" style="stop-color:#6AA8DD"/>
			<stop  offset="0.9508" style="stop-color:#69A6DB"/>
			<stop  offset="0.9694" style="stop-color:#66A1D4"/>
			<stop  offset="0.9834" style="stop-color:#6097C7"/>
			<stop  offset="0.995" style="stop-color:#578AB5"/>
			<stop  offset="1" style="stop-color:#5282AB"/>
		</radialGradient>
		<circle fill="url(#SVGID_2_)" cx="27.735" cy="27.224" r="20.833"/>
	</g>
	<path fill="#FFFFFF" d="M16.006,20.212c0.631,0.947,1.432,1.777,2.355,2.443c-0.01,0.202-0.016,0.406-0.016,0.611
		c0,6.232,4.747,13.421,13.422,13.421c2.666,0,5.144-0.78,7.233-2.119c-0.371,0.043-0.746,0.065-1.126,0.065
		c-2.211,0-4.245-0.755-5.859-2.02c2.063-0.039,3.805-1.402,4.407-3.276c-0.289,0.055-0.586,0.084-0.89,0.084
		c-0.428,0-0.846-0.057-1.242-0.166c2.158-0.433,3.785-2.34,3.785-4.625c0-0.02,0-0.039,0-0.059
		c-0.639,0.354-1.365,0.566-2.139,0.589c1.267-0.845,2.1-2.289,2.1-3.926c0-0.864-0.234-1.674-0.639-2.371
		c-2.328,2.853-5.801,4.732-9.724,4.929c0.081-0.345,0.121-0.706,0.121-1.074c0-2.607-2.11-4.719-4.717-4.719
		c-1.356,0-2.582,0.572-3.442,1.49c-1.074-0.211-2.085-0.603-2.996-1.145c0.352,1.102,1.1,2.026,2.073,2.61
		C17.762,20.841,16.852,20.588,16.006,20.212"/>
</g>
</svg>
