<?xml version="1.0" encoding="utf-8"?>
<!-- Generator: Adobe Illustrator 15.0.0, SVG Export Plug-In . SVG Version: 6.00 Build 0)  -->
<!DOCTYPE svg PUBLIC "-//W3C//DTD SVG 1.1//EN" "http://www.w3.org/Graphics/SVG/1.1/DTD/svg11.dtd">
<svg version="1.1" id="Calque_1" xmlns="http://www.w3.org/2000/svg" xmlns:xlink="http://www.w3.org/1999/xlink" x="0px" y="0px"
	 width="55px" height="55px" viewBox="0 0 55 55" enable-background="new 0 0 55 55" xml:space="preserve">
<g>
	<g>
		<g>
			<g>
				<g>
					<radialGradient id="SVGID_1_" cx="27.2637" cy="27.2236" r="25" gradientUnits="userSpaceOnUse">
						<stop  offset="0.7914" style="stop-color:#EEF0EE"/>
						<stop  offset="0.8431" style="stop-color:#ECEEEC"/>
						<stop  offset="0.8656" style="stop-color:#E5E7E5"/>
						<stop  offset="0.8825" style="stop-color:#D9DAD9"/>
						<stop  offset="0.8965" style="stop-color:#C8C8C8"/>
						<stop  offset="0.908" style="stop-color:#B3B3B3"/>
						<stop  offset="0.9571" style="stop-color:#EEF0EE"/>
						<stop  offset="0.9937" style="stop-color:#EEF0EE"/>
						<stop  offset="1" style="stop-color:#EEF0EE"/>
					</radialGradient>
					<circle fill="url(#SVGID_1_)" cx="27.264" cy="27.224" r="25"/>
					<g opacity="0.35">
						<path d="M23.729,50.118c-1.89-0.293-3.734-0.813-5.483-1.551c-0.592-0.25-0.874-0.935-0.621-1.526
							c0.251-0.595,0.941-0.876,1.527-0.622c2.896,1.222,6.119,1.777,9.25,1.612c0.633-0.039,1.194,0.458,1.225,1.103
							c0.039,0.642-0.458,1.191-1.1,1.226C26.935,50.447,25.321,50.364,23.729,50.118z M33.202,49.516
							c-0.434-0.069-0.811-0.379-0.939-0.831c-0.181-0.617,0.174-1.265,0.796-1.445c3.02-0.874,5.853-2.456,8.196-4.573
							c0.473-0.433,1.215-0.395,1.647,0.081c0.43,0.477,0.394,1.219-0.083,1.648c-2.604,2.355-5.757,4.113-9.111,5.087
							C33.539,49.529,33.366,49.539,33.202,49.516z M14.172,46.195c-0.176-0.027-0.349-0.098-0.503-0.211
							c-2.832-2.058-5.203-4.78-6.854-7.873c-0.303-0.568-0.088-1.274,0.481-1.58c0.569-0.303,1.274-0.085,1.579,0.481
							c1.484,2.785,3.616,5.234,6.162,7.086c0.521,0.38,0.638,1.106,0.259,1.628C15.031,46.092,14.591,46.26,14.172,46.195z
							 M45.154,40.938c-0.17-0.027-0.338-0.091-0.487-0.195c-0.529-0.368-0.658-1.097-0.291-1.625
							c1.819-2.607,2.991-5.543,3.479-8.715c0.159-1.024,0.242-2.067,0.248-3.098c0.006-0.647,0.527-1.166,1.172-1.163
							c0.639,0.003,1.162,0.527,1.161,1.172c-0.006,1.148-0.098,2.308-0.272,3.445c-0.546,3.527-1.852,6.789-3.874,9.693
							C46.027,40.83,45.581,41.004,45.154,40.938z M5.835,34.079c-0.44-0.068-0.823-0.39-0.947-0.85
							c-0.84-3.115-1.013-6.325-0.516-9.542c0.046-0.301,0.127-0.789,0.186-1.083c0.119-0.615,0.734-1.217,1.353-1.119
							c0.015,0,0.028,0.005,0.045,0.006c0.636,0.098,1.016,0.929,0.89,1.562c-0.05,0.265-0.111,0.627-0.153,0.894
							c-0.443,2.894-0.298,5.829,0.458,8.629c0.167,0.624-0.207,1.288-0.829,1.455C6.159,34.07,5.991,34.103,5.835,34.079z
							 M6.989,19.415c-0.1-0.014-0.2-0.042-0.295-0.083c-0.589-0.264-0.856-0.952-0.594-1.542c1.42-3.193,3.599-6.074,6.291-8.329
							c0.497-0.411,1.23-0.344,1.644,0.146c0.413,0.495,0.348,1.231-0.145,1.645c-2.425,2.027-4.381,4.618-5.656,7.487
							C8.015,19.231,7.498,19.496,6.989,19.415z M48.55,23.509c-0.46-0.073-0.851-0.416-0.963-0.896
							c-0.694-3.066-2.109-5.988-4.087-8.449c-0.405-0.504-0.324-1.237,0.176-1.639c0.502-0.408,1.238-0.325,1.642,0.176
							c2.199,2.735,3.771,5.986,4.55,9.396c0.14,0.626-0.251,1.251-0.879,1.396C48.837,23.525,48.69,23.528,48.55,23.509z
							 M17.127,8.76c-0.357-0.056-0.685-0.276-0.86-0.622c-0.293-0.575-0.066-1.278,0.509-1.571
							c3.128-1.593,6.631-2.458,10.131-2.508c0.653-0.008,1.177,0.505,1.187,1.149c0.008,0.645-0.508,1.175-1.151,1.183
							c-3.146,0.043-6.293,0.824-9.105,2.255C17.605,8.763,17.361,8.796,17.127,8.76z M40.685,11.078
							c-0.191-0.03-0.38-0.108-0.541-0.237c-2.51-1.976-5.366-3.314-8.496-3.984c-0.633-0.137-1.033-0.756-0.898-1.387
							c0.135-0.628,0.783-0.974,1.385-0.896c3.48,0.744,6.662,2.235,9.453,4.434c0.502,0.396,0.593,1.13,0.191,1.638
							C41.512,10.989,41.089,11.14,40.685,11.078z"/>
					</g>
					<g opacity="0.35">
						<path d="M18.384,48.621c-1.766-0.733-3.434-1.678-4.954-2.812c-0.515-0.382-0.628-1.114-0.241-1.628
							c0.385-0.521,1.12-0.629,1.631-0.242c2.522,1.875,5.52,3.184,8.603,3.767c0.626,0.113,1.05,0.726,0.926,1.363
							c-0.112,0.632-0.728,1.047-1.36,0.928C21.423,49.703,19.875,49.239,18.384,48.621z M27.732,50.289
							c-0.407-0.171-0.697-0.562-0.717-1.03c-0.026-0.645,0.473-1.187,1.114-1.215c3.145-0.13,6.272-0.992,9.05-2.493
							c0.563-0.309,1.275-0.095,1.582,0.472c0.302,0.565,0.091,1.275-0.473,1.579c-3.087,1.669-6.566,2.626-10.06,2.775
							C28.054,50.381,27.883,50.35,27.732,50.289z M10.038,42.536c-0.166-0.068-0.319-0.177-0.44-0.322
							c-2.262-2.673-3.915-5.882-4.784-9.28c-0.158-0.623,0.218-1.258,0.843-1.417s1.259,0.219,1.419,0.84
							c0.78,3.061,2.269,5.945,4.301,8.351c0.416,0.491,0.354,1.225-0.137,1.643C10.896,42.641,10.429,42.699,10.038,42.536z
							 M41.379,44.801c-0.156-0.067-0.307-0.168-0.427-0.308c-0.426-0.482-0.378-1.219,0.104-1.646
							c2.387-2.1,4.225-4.674,5.452-7.637c0.398-0.96,0.73-1.952,0.979-2.952c0.158-0.625,0.791-1.005,1.414-0.849
							c0.618,0.153,1.005,0.787,0.849,1.412c-0.278,1.116-0.642,2.218-1.083,3.284c-1.37,3.295-3.409,6.152-6.068,8.491
							C42.253,44.903,41.776,44.965,41.379,44.801z M4.821,28.786c-0.412-0.172-0.708-0.575-0.719-1.051
							c-0.074-3.227,0.519-6.384,1.766-9.392c0.117-0.28,0.312-0.736,0.439-1.007c0.263-0.569,1.004-1.008,1.581-0.768
							c0.014,0.006,0.028,0.014,0.042,0.019c0.597,0.245,0.765,1.144,0.494,1.726c-0.112,0.248-0.26,0.586-0.361,0.834
							c-1.121,2.705-1.678,5.592-1.609,8.49c0.012,0.645-0.508,1.2-1.149,1.216C5.136,28.854,4.966,28.846,4.821,28.786z
							 M9.429,14.817c-0.094-0.039-0.184-0.09-0.265-0.152c-0.514-0.397-0.604-1.129-0.212-1.64c2.14-2.762,4.941-5.044,8.091-6.592
							c0.583-0.28,1.281-0.041,1.565,0.532c0.282,0.579,0.042,1.28-0.534,1.562c-2.836,1.392-5.353,3.445-7.275,5.929
							C10.467,14.88,9.906,15.017,9.429,14.817z M48.825,28.678c-0.43-0.181-0.73-0.605-0.722-1.099
							c0.053-3.145-0.626-6.319-1.963-9.18c-0.272-0.583-0.021-1.277,0.562-1.548c0.581-0.276,1.28-0.022,1.551,0.559
							c1.484,3.182,2.239,6.712,2.184,10.208c-0.013,0.645-0.543,1.158-1.185,1.148C49.1,28.763,48.954,28.731,48.825,28.678z
							 M21.812,6.879c-0.335-0.14-0.602-0.433-0.689-0.812c-0.147-0.625,0.24-1.256,0.868-1.402
							c3.418-0.805,7.025-0.811,10.436-0.028c0.638,0.149,1.023,0.771,0.88,1.399c-0.146,0.628-0.774,1.021-1.399,0.875
							c-3.066-0.707-6.309-0.694-9.382,0.023C22.274,6.993,22.029,6.97,21.812,6.879z M44.14,14.733
							c-0.18-0.075-0.343-0.195-0.469-0.36c-1.968-2.514-4.424-4.494-7.306-5.89c-0.58-0.283-0.821-0.979-0.541-1.56
							c0.277-0.578,0.996-0.759,1.557-0.541c3.209,1.551,5.94,3.755,8.131,6.554c0.394,0.507,0.301,1.24-0.207,1.638
							C44.966,14.842,44.519,14.89,44.14,14.733z"/>
					</g>
					<g>
						<path fill="#F2F2F2" d="M25.669,50c-0.021,0-0.043,0-0.065,0c-1.568,0-3.134-0.396-4.658-0.836
							c-1.81-0.521-3.551-1.263-5.169-2.203c-0.398-0.231-0.534-0.741-0.303-1.139c0.229-0.4,0.742-0.529,1.14-0.301
							c1.501,0.873,3.112,1.558,4.794,2.04c1.414,0.41,2.868,0.671,4.322,0.778c0.457,0.034,0.803,0.434,0.77,0.893
							C26.466,49.671,26.101,50,25.669,50z M30.644,49.802c-0.401,0-0.754-0.293-0.82-0.704c-0.07-0.455,0.24-0.882,0.696-0.952
							c3.156-0.493,6.218-1.724,8.848-3.558c0.384-0.262,0.901-0.173,1.164,0.207c0.262,0.378,0.167,0.898-0.207,1.16
							c-2.84,1.979-6.141,3.304-9.548,3.837C30.73,49.798,30.688,49.802,30.644,49.802z M12.196,44.095
							c-0.205,0-0.411-0.075-0.57-0.227c-2.51-2.363-4.488-5.323-5.716-8.555c-0.164-0.43,0.054-0.912,0.483-1.077
							c0.428-0.157,0.91,0.054,1.075,0.483c1.14,2.999,2.973,5.742,5.3,7.934c0.335,0.316,0.349,0.844,0.036,1.179
							C12.641,44.005,12.419,44.095,12.196,44.095z M43.592,42.81c-0.198,0-0.396-0.071-0.557-0.215
							c-0.342-0.309-0.367-0.836-0.06-1.176c2.17-2.402,3.728-5.21,4.627-8.34c0.293-1.013,0.51-2.051,0.648-3.082
							c0.062-0.456,0.487-0.792,0.937-0.714c0.456,0.06,0.774,0.479,0.714,0.936c-0.147,1.113-0.382,2.229-0.695,3.32
							c-0.972,3.376-2.651,6.403-4.995,8.996C44.048,42.716,43.82,42.81,43.592,42.81z M5.457,31.014
							c-0.409,0-0.769-0.303-0.823-0.72c-0.141-1.011-0.211-2.044-0.211-3.066c0-2.129,0.302-4.258,0.896-6.322
							c0.083-0.287,0.17-0.576,0.266-0.859c0.145-0.436,0.625-0.678,1.055-0.524c0.436,0.145,0.672,0.619,0.525,1.055
							c-0.088,0.261-0.168,0.523-0.244,0.789c-0.553,1.917-0.83,3.89-0.83,5.862c0,0.946,0.065,1.901,0.19,2.839
							c0.065,0.457-0.254,0.878-0.708,0.939C5.534,31.012,5.495,31.014,5.457,31.014z M49.168,25.955
							c-0.423,0-0.785-0.322-0.829-0.753c-0.305-3.178-1.354-6.306-3.031-9.042c-0.24-0.393-0.12-0.905,0.275-1.147
							c0.393-0.234,0.905-0.117,1.145,0.276c1.812,2.951,2.939,6.325,3.271,9.754c0.045,0.458-0.291,0.863-0.749,0.91
							C49.223,25.954,49.194,25.955,49.168,25.955z M8.465,16.617c-0.147,0-0.297-0.039-0.434-0.123
							c-0.394-0.237-0.517-0.751-0.278-1.145c1.79-2.946,4.277-5.488,7.195-7.354c0.385-0.249,0.9-0.138,1.149,0.253
							c0.249,0.388,0.137,0.904-0.251,1.151c-2.704,1.729-5.01,4.086-6.672,6.816C9.019,16.473,8.745,16.617,8.465,16.617z
							 M42.948,12.625c-0.216,0-0.431-0.082-0.593-0.249c-2.272-2.313-4.98-4.035-8.05-5.113c-0.434-0.152-0.661-0.629-0.509-1.063
							c0.152-0.432,0.632-0.665,1.063-0.509c3.311,1.166,6.231,3.021,8.683,5.518c0.322,0.328,0.316,0.855-0.013,1.179
							C43.368,12.546,43.159,12.625,42.948,12.625z M19.875,7.331c-0.34,0-0.661-0.212-0.784-0.553
							c-0.153-0.434,0.07-0.911,0.506-1.065c3.278-1.174,6.807-1.571,10.22-1.186c0.455,0.051,0.786,0.466,0.731,0.923
							c-0.051,0.456-0.478,0.776-0.921,0.734c-3.161-0.363-6.429,0.011-9.472,1.098C20.062,7.314,19.969,7.331,19.875,7.331z"/>
					</g>
				</g>
			</g>
		</g>
		<radialGradient id="SVGID_2_" cx="27.2642" cy="27.2236" r="20.8333" gradientUnits="userSpaceOnUse">
			<stop  offset="0.908" style="stop-color:#EEF0EE"/>
			<stop  offset="0.9488" style="stop-color:#ECEEEC"/>
			<stop  offset="0.9666" style="stop-color:#E5E7E5"/>
			<stop  offset="0.9799" style="stop-color:#D9DAD9"/>
			<stop  offset="0.9909" style="stop-color:#C8C8C8"/>
			<stop  offset="1" style="stop-color:#B3B3B3"/>
		</radialGradient>
		<circle fill="url(#SVGID_2_)" cx="27.264" cy="27.224" r="20.833"/>
	</g>
	<path d="M38.994,20.212c-0.846,0.376-1.756,0.629-2.708,0.743c0.974-0.584,1.722-1.508,2.073-2.61
		c-0.911,0.542-1.922,0.934-2.996,1.145C34.503,18.572,33.278,18,31.921,18c-2.606,0-4.717,2.112-4.717,4.719
		c0,0.368,0.04,0.729,0.121,1.074c-3.922-0.197-7.396-2.076-9.724-4.929c-0.404,0.697-0.638,1.507-0.638,2.371
		c0,1.637,0.833,3.081,2.099,3.926c-0.773-0.023-1.5-0.235-2.138-0.589c0,0.02,0,0.039,0,0.059c0,2.285,1.627,4.192,3.785,4.625
		c-0.397,0.109-0.815,0.166-1.242,0.166c-0.304,0-0.601-0.03-0.89-0.084c0.602,1.874,2.344,3.237,4.408,3.276
		c-1.615,1.265-3.649,2.02-5.86,2.02c-0.38,0-0.755-0.023-1.126-0.066c2.09,1.339,4.567,2.119,7.233,2.119
		c8.675,0,13.422-7.189,13.422-13.421c0-0.205-0.005-0.409-0.015-0.611C37.562,21.989,38.363,21.159,38.994,20.212"/>
</g>
</svg>
