<?xml version="1.0" encoding="utf-8"?>
<!-- Generator: Adobe Illustrator 15.0.0, SVG Export Plug-In . SVG Version: 6.00 Build 0)  -->
<!DOCTYPE svg PUBLIC "-//W3C//DTD SVG 1.1//EN" "http://www.w3.org/Graphics/SVG/1.1/DTD/svg11.dtd">
<svg version="1.1" id="Calque_1" xmlns="http://www.w3.org/2000/svg" xmlns:xlink="http://www.w3.org/1999/xlink" x="0px" y="0px"
	 width="55px" height="55px" viewBox="0 0 55 55" enable-background="new 0 0 55 55" xml:space="preserve">
<g>
	<g>
		<g>
			<image overflow="visible" opacity="0.35" width="57" height="57" xlink:href="9529760C.png"  transform="matrix(1 0 0 1 -1 -1)">
			</image>
			<g>
				<g>
					<radialGradient id="SVGID_1_" cx="27.4961" cy="27.2236" r="25" gradientUnits="userSpaceOnUse">
						<stop  offset="0.7914" style="stop-color:#1377FF"/>
						<stop  offset="0.8386" style="stop-color:#1376FD"/>
						<stop  offset="0.8592" style="stop-color:#1273F6"/>
						<stop  offset="0.8746" style="stop-color:#116DE9"/>
						<stop  offset="0.8874" style="stop-color:#1064D7"/>
						<stop  offset="0.8986" style="stop-color:#0E59C0"/>
						<stop  offset="0.908" style="stop-color:#0C4DA6"/>
						<stop  offset="0.9571" style="stop-color:#1377FF"/>
						<stop  offset="0.9937" style="stop-color:#1377FF"/>
						<stop  offset="1" style="stop-color:#1377FF"/>
					</radialGradient>
					<circle fill="url(#SVGID_1_)" cx="27.496" cy="27.224" r="25"/>
					<g opacity="0.35">
						<path d="M23.962,50.118c-1.89-0.293-3.734-0.813-5.483-1.551c-0.592-0.25-0.874-0.935-0.621-1.526
							c0.25-0.595,0.94-0.876,1.526-0.622c2.897,1.222,6.12,1.777,9.251,1.612c0.633-0.039,1.194,0.458,1.225,1.103
							c0.039,0.642-0.458,1.191-1.101,1.226C27.167,50.447,25.554,50.364,23.962,50.118z M33.435,49.516
							c-0.434-0.069-0.811-0.379-0.939-0.831c-0.181-0.617,0.176-1.265,0.795-1.445c3.021-0.874,5.853-2.456,8.196-4.573
							c0.474-0.433,1.216-0.395,1.647,0.081c0.43,0.477,0.395,1.219-0.082,1.648c-2.604,2.355-5.757,4.113-9.111,5.087
							C33.771,49.529,33.599,49.539,33.435,49.516z M14.404,46.195c-0.176-0.027-0.349-0.098-0.503-0.211
							c-2.832-2.058-5.203-4.78-6.854-7.873c-0.302-0.568-0.087-1.274,0.479-1.58c0.572-0.303,1.277-0.085,1.582,0.481
							c1.484,2.785,3.615,5.234,6.162,7.086c0.521,0.38,0.637,1.106,0.259,1.628C15.263,46.092,14.823,46.26,14.404,46.195z
							 M45.387,40.938c-0.17-0.027-0.339-0.091-0.487-0.195c-0.529-0.368-0.659-1.097-0.291-1.625
							c1.819-2.607,2.991-5.543,3.479-8.715c0.159-1.024,0.242-2.067,0.248-3.098c0.006-0.647,0.527-1.166,1.172-1.163
							c0.636,0.003,1.161,0.527,1.161,1.172c-0.006,1.148-0.098,2.308-0.272,3.445c-0.546,3.527-1.852,6.789-3.874,9.693
							C46.259,40.83,45.813,41.004,45.387,40.938z M6.067,34.079c-0.44-0.068-0.823-0.39-0.948-0.85
							c-0.84-3.115-1.012-6.325-0.515-9.542c0.046-0.301,0.127-0.789,0.186-1.083c0.119-0.615,0.733-1.217,1.352-1.119
							c0.016,0,0.029,0.005,0.046,0.006c0.636,0.098,1.016,0.929,0.89,1.562c-0.05,0.265-0.111,0.627-0.153,0.894
							c-0.443,2.894-0.298,5.829,0.458,8.629c0.164,0.624-0.207,1.288-0.829,1.455C6.392,34.07,6.224,34.103,6.067,34.079z
							 M7.222,19.415c-0.1-0.014-0.2-0.042-0.295-0.083c-0.59-0.264-0.855-0.952-0.594-1.542c1.42-3.193,3.596-6.074,6.291-8.329
							c0.497-0.411,1.23-0.344,1.644,0.146c0.413,0.495,0.348,1.231-0.145,1.645c-2.425,2.027-4.384,4.618-5.657,7.487
							C8.247,19.231,7.73,19.496,7.222,19.415z M48.782,23.509c-0.46-0.073-0.851-0.416-0.963-0.896
							c-0.694-3.066-2.109-5.988-4.087-8.449c-0.405-0.504-0.327-1.237,0.176-1.639c0.502-0.408,1.238-0.325,1.641,0.176
							c2.2,2.735,3.772,5.986,4.551,9.396c0.14,0.626-0.251,1.251-0.879,1.396C49.069,23.525,48.923,23.528,48.782,23.509z
							 M17.36,8.76c-0.359-0.056-0.686-0.276-0.861-0.622c-0.293-0.575-0.066-1.278,0.509-1.571
							c3.128-1.593,6.631-2.458,10.13-2.508c0.654-0.008,1.176,0.505,1.188,1.149c0.008,0.645-0.508,1.175-1.151,1.183
							c-3.146,0.043-6.293,0.824-9.105,2.255C17.837,8.763,17.594,8.796,17.36,8.76z M40.917,11.078
							c-0.192-0.03-0.381-0.108-0.541-0.237c-2.51-1.976-5.367-3.314-8.496-3.984c-0.633-0.137-1.033-0.756-0.898-1.387
							c0.134-0.628,0.783-0.974,1.384-0.896c3.481,0.744,6.663,2.235,9.453,4.434c0.503,0.396,0.593,1.13,0.192,1.638
							C41.744,10.989,41.321,11.14,40.917,11.078z"/>
					</g>
					<g opacity="0.35">
						<path d="M18.615,48.621c-1.765-0.733-3.433-1.678-4.954-2.812c-0.515-0.382-0.627-1.114-0.241-1.628
							c0.386-0.521,1.121-0.629,1.632-0.242c2.522,1.875,5.52,3.184,8.603,3.767c0.625,0.113,1.05,0.726,0.925,1.363
							c-0.111,0.632-0.727,1.047-1.359,0.928C21.655,49.703,20.106,49.239,18.615,48.621z M27.965,50.289
							c-0.407-0.171-0.697-0.562-0.717-1.03c-0.026-0.645,0.473-1.187,1.113-1.215c3.145-0.13,6.273-0.992,9.051-2.493
							c0.563-0.309,1.276-0.095,1.581,0.472c0.303,0.565,0.091,1.275-0.472,1.579c-3.087,1.669-6.566,2.626-10.06,2.775
							C28.286,50.381,28.114,50.35,27.965,50.289z M10.271,42.536c-0.166-0.068-0.319-0.177-0.44-0.322
							c-2.263-2.673-3.915-5.882-4.784-9.28c-0.158-0.623,0.218-1.258,0.842-1.417c0.625-0.159,1.26,0.219,1.419,0.84
							c0.781,3.061,2.269,5.945,4.302,8.351c0.418,0.491,0.354,1.225-0.137,1.643C11.128,42.641,10.661,42.699,10.271,42.536z
							 M41.611,44.801c-0.159-0.067-0.307-0.168-0.427-0.308c-0.426-0.482-0.378-1.219,0.104-1.646
							c2.386-2.1,4.225-4.674,5.452-7.637c0.398-0.96,0.729-1.952,0.979-2.952c0.158-0.625,0.791-1.005,1.414-0.849
							c0.618,0.153,1.005,0.787,0.849,1.412c-0.278,1.116-0.642,2.218-1.083,3.284c-1.373,3.295-3.409,6.152-6.068,8.491
							C42.485,44.903,42.009,44.965,41.611,44.801z M5.054,28.786c-0.412-0.172-0.709-0.575-0.719-1.051
							c-0.075-3.227,0.519-6.384,1.766-9.392c0.117-0.28,0.312-0.736,0.439-1.007c0.263-0.569,1.004-1.008,1.581-0.768
							c0.013,0.006,0.028,0.014,0.042,0.019c0.596,0.245,0.765,1.144,0.494,1.726c-0.113,0.248-0.26,0.586-0.361,0.834
							c-1.121,2.705-1.679,5.592-1.609,8.49c0.012,0.645-0.508,1.2-1.15,1.216C5.368,28.854,5.197,28.846,5.054,28.786z
							 M9.661,14.817c-0.094-0.039-0.184-0.09-0.265-0.152c-0.513-0.397-0.605-1.129-0.212-1.64c2.14-2.762,4.941-5.044,8.091-6.592
							c0.583-0.28,1.281-0.041,1.565,0.532c0.282,0.579,0.043,1.28-0.534,1.562c-2.836,1.392-5.353,3.445-7.275,5.929
							C10.699,14.88,10.139,15.017,9.661,14.817z M49.058,28.678c-0.43-0.181-0.73-0.605-0.722-1.099
							c0.052-3.145-0.626-6.319-1.963-9.18c-0.272-0.583-0.021-1.277,0.562-1.548c0.581-0.276,1.28-0.022,1.551,0.559
							c1.484,3.182,2.238,6.712,2.183,10.208c-0.012,0.645-0.542,1.158-1.184,1.148C49.333,28.763,49.187,28.731,49.058,28.678z
							 M22.046,6.879c-0.338-0.14-0.604-0.433-0.691-0.812c-0.147-0.625,0.242-1.256,0.868-1.402
							c3.418-0.805,7.024-0.811,10.436-0.028c0.638,0.149,1.023,0.771,0.879,1.399c-0.146,0.628-0.773,1.021-1.398,0.875
							c-3.066-0.707-6.31-0.694-9.383,0.023C22.507,6.993,22.262,6.97,22.046,6.879z M44.372,14.733
							c-0.178-0.075-0.344-0.195-0.469-0.36c-1.968-2.514-4.424-4.494-7.306-5.89c-0.58-0.283-0.821-0.979-0.541-1.56
							c0.276-0.578,0.996-0.759,1.557-0.541c3.209,1.551,5.94,3.755,8.131,6.554c0.394,0.507,0.301,1.24-0.207,1.638
							C45.197,14.842,44.751,14.89,44.372,14.733z"/>
					</g>
					<g>
						<path fill="#F2F2F2" d="M25.9,50c-0.02,0-0.042,0-0.062,0c-1.571,0-3.137-0.396-4.661-0.836
							c-1.81-0.521-3.551-1.263-5.169-2.203c-0.398-0.231-0.534-0.741-0.304-1.139c0.229-0.4,0.742-0.529,1.14-0.301
							c1.502,0.873,3.113,1.558,4.795,2.04c1.414,0.41,2.868,0.671,4.322,0.778c0.457,0.034,0.803,0.434,0.77,0.893
							C26.698,49.671,26.333,50,25.9,50z M30.876,49.802c-0.401,0-0.754-0.293-0.82-0.704c-0.07-0.455,0.239-0.882,0.695-0.952
							c3.157-0.493,6.219-1.724,8.849-3.558c0.383-0.262,0.901-0.173,1.164,0.207c0.262,0.378,0.169,0.898-0.208,1.16
							c-2.839,1.979-6.14,3.304-9.547,3.837C30.963,49.798,30.92,49.802,30.876,49.802z M12.429,44.095
							c-0.205,0-0.411-0.075-0.571-0.227c-2.509-2.363-4.487-5.323-5.716-8.555c-0.163-0.43,0.055-0.912,0.484-1.077
							c0.427-0.157,0.91,0.054,1.075,0.483c1.14,2.999,2.972,5.742,5.3,7.934c0.335,0.316,0.349,0.844,0.035,1.179
							C12.873,44.005,12.651,44.095,12.429,44.095z M43.824,42.81c-0.198,0-0.397-0.071-0.557-0.215
							c-0.342-0.309-0.368-0.836-0.06-1.176c2.17-2.402,3.728-5.21,4.626-8.34c0.293-1.013,0.511-2.051,0.649-3.082
							c0.061-0.456,0.487-0.792,0.937-0.714c0.456,0.06,0.774,0.479,0.714,0.936c-0.147,1.113-0.382,2.229-0.695,3.32
							c-0.972,3.376-2.652,6.403-4.995,8.996C44.279,42.716,44.053,42.81,43.824,42.81z M5.688,31.014
							c-0.408,0-0.768-0.303-0.823-0.72c-0.14-1.011-0.21-2.044-0.21-3.066c0-2.129,0.302-4.258,0.896-6.322
							c0.082-0.287,0.17-0.576,0.266-0.859c0.145-0.436,0.625-0.678,1.055-0.524c0.435,0.145,0.672,0.619,0.525,1.055
							c-0.087,0.261-0.169,0.523-0.244,0.789c-0.553,1.917-0.83,3.89-0.83,5.862c0,0.946,0.065,1.901,0.19,2.839
							c0.065,0.457-0.254,0.878-0.708,0.939C5.767,31.012,5.728,31.014,5.688,31.014z M49.4,25.955
							c-0.423,0-0.785-0.322-0.829-0.753c-0.305-3.178-1.354-6.306-3.031-9.042c-0.24-0.393-0.12-0.905,0.273-1.147
							c0.395-0.234,0.907-0.117,1.146,0.276c1.812,2.951,2.939,6.325,3.271,9.754c0.044,0.458-0.291,0.863-0.752,0.91
							C49.455,25.954,49.429,25.955,49.4,25.955z M8.697,16.617c-0.147,0-0.297-0.039-0.434-0.123
							c-0.394-0.237-0.517-0.751-0.278-1.145c1.79-2.946,4.277-5.488,7.195-7.354c0.385-0.249,0.9-0.138,1.149,0.253
							c0.249,0.388,0.137,0.904-0.251,1.151c-2.704,1.729-5.01,4.086-6.672,6.816C9.251,16.473,8.978,16.617,8.697,16.617z
							 M43.181,12.625c-0.216,0-0.431-0.082-0.594-0.249c-2.272-2.313-4.979-4.035-8.049-5.113c-0.435-0.152-0.662-0.629-0.51-1.063
							c0.153-0.432,0.633-0.665,1.064-0.509c3.311,1.166,6.231,3.021,8.683,5.518c0.322,0.328,0.316,0.855-0.011,1.179
							C43.601,12.546,43.392,12.625,43.181,12.625z M20.107,7.331c-0.34,0-0.661-0.212-0.784-0.553
							c-0.154-0.434,0.07-0.911,0.506-1.065c3.278-1.174,6.807-1.571,10.219-1.186c0.456,0.051,0.787,0.466,0.732,0.923
							c-0.051,0.456-0.478,0.776-0.921,0.734c-3.161-0.363-6.429,0.011-9.472,1.098C20.295,7.314,20.201,7.331,20.107,7.331z"/>
					</g>
				</g>
			</g>
		</g>
		<radialGradient id="SVGID_2_" cx="27.4956" cy="27.2236" r="20.8333" gradientUnits="userSpaceOnUse">
			<stop  offset="0.908" style="stop-color:#1377FF"/>
			<stop  offset="0.9452" style="stop-color:#1376FD"/>
			<stop  offset="0.9615" style="stop-color:#1273F6"/>
			<stop  offset="0.9737" style="stop-color:#116DE9"/>
			<stop  offset="0.9838" style="stop-color:#1064D7"/>
			<stop  offset="0.9926" style="stop-color:#0E59C0"/>
			<stop  offset="1" style="stop-color:#0C4DA6"/>
		</radialGradient>
		<circle fill="url(#SVGID_2_)" cx="27.496" cy="27.224" r="20.833"/>
	</g>
	<g>
		<path fill="#FFFFFF" d="M22.694,18.436c0.787,0,1.494,0.067,2.146,0.208c0.644,0.137,1.192,0.364,1.659,0.679
			c0.459,0.313,0.815,0.729,1.072,1.254c0.25,0.516,0.377,1.163,0.377,1.93c0,0.827-0.188,1.519-0.563,2.071
			c-0.378,0.553-0.934,1.005-1.677,1.356c1.01,0.29,1.76,0.802,2.257,1.53c0.499,0.732,0.743,1.609,0.743,2.638
			c0,0.834-0.158,1.552-0.479,2.154c-0.323,0.613-0.76,1.109-1.3,1.49c-0.547,0.385-1.169,0.669-1.872,0.852
			c-0.689,0.184-1.412,0.278-2.146,0.278h-7.969v-16.44H22.694 M22.226,25.078c0.642,0,1.172-0.152,1.593-0.462
			c0.416-0.303,0.617-0.807,0.617-1.495c0-0.383-0.065-0.698-0.201-0.943c-0.14-0.246-0.326-0.438-0.557-0.572
			c-0.233-0.14-0.495-0.237-0.798-0.287c-0.297-0.061-0.609-0.082-0.931-0.082h-3.388v3.842H22.226z M22.427,32.077
			c0.355,0,0.694-0.033,1.013-0.104c0.325-0.071,0.61-0.183,0.854-0.351c0.243-0.157,0.443-0.376,0.589-0.654
			c0.146-0.276,0.218-0.633,0.218-1.065c0-0.847-0.24-1.449-0.715-1.815c-0.477-0.359-1.107-0.538-1.888-0.538h-3.936v4.528H22.427z
			"/>
		<path fill="#FFFFFF" d="M33.869,32.021c0.488,0.479,1.196,0.719,2.114,0.719c0.659,0,1.229-0.166,1.707-0.5
			c0.473-0.333,0.763-0.687,0.873-1.055h2.879c-0.461,1.433-1.163,2.454-2.121,3.073c-0.947,0.617-2.102,0.925-3.447,0.925
			c-0.938,0-1.782-0.151-2.539-0.45c-0.758-0.304-1.392-0.729-1.923-1.28c-0.518-0.556-0.922-1.213-1.21-1.984
			c-0.283-0.768-0.427-1.615-0.427-2.536c0-0.89,0.148-1.722,0.441-2.491c0.296-0.771,0.707-1.438,1.245-1.995
			c0.54-0.562,1.182-1.002,1.93-1.327c0.745-0.322,1.571-0.484,2.482-0.484c1.007,0,1.887,0.194,2.646,0.589
			c0.752,0.391,1.368,0.918,1.855,1.578c0.485,0.658,0.83,1.413,1.045,2.259c0.215,0.844,0.288,1.727,0.229,2.649h-8.59
			C33.06,30.651,33.376,31.544,33.869,32.021 M37.624,25.766c-0.389-0.428-1.045-0.661-1.848-0.661
			c-0.523,0-0.956,0.088-1.302,0.267c-0.339,0.177-0.617,0.397-0.829,0.655c-0.211,0.264-0.354,0.543-0.438,0.839
			c-0.084,0.29-0.135,0.553-0.148,0.784h5.318C38.3,26.817,38.015,26.199,37.624,25.766z"/>
		<rect x="32.39" y="19.538" fill="#FFFFFF" width="6.663" height="1.622"/>
	</g>
</g>
</svg>
