<?xml version="1.0" encoding="utf-8"?>
<!-- Generator: Adobe Illustrator 15.0.0, SVG Export Plug-In . SVG Version: 6.00 Build 0)  -->
<!DOCTYPE svg PUBLIC "-//W3C//DTD SVG 1.1//EN" "http://www.w3.org/Graphics/SVG/1.1/DTD/svg11.dtd">
<svg version="1.1" id="Calque_1" xmlns="http://www.w3.org/2000/svg" xmlns:xlink="http://www.w3.org/1999/xlink" x="0px" y="0px"
	 width="55px" height="55px" viewBox="0 0 55 55" enable-background="new 0 0 55 55" xml:space="preserve">
<g>
	<g>
		<g>
			<image overflow="visible" opacity="0.35" width="57" height="57" xlink:href="12CF15C.png"  transform="matrix(1 0 0 1 -1 -1)">
			</image>
			<g>
				<g>
					<radialGradient id="SVGID_1_" cx="27.2637" cy="27.2236" r="25" gradientUnits="userSpaceOnUse">
						<stop  offset="0.7914" style="stop-color:#AB1C1E"/>
						<stop  offset="0.8483" style="stop-color:#A91C1E"/>
						<stop  offset="0.8731" style="stop-color:#A21A1C"/>
						<stop  offset="0.8916" style="stop-color:#95181A"/>
						<stop  offset="0.9069" style="stop-color:#831517"/>
						<stop  offset="0.908" style="stop-color:#821517"/>
						<stop  offset="0.9571" style="stop-color:#AB1C1E"/>
						<stop  offset="0.9937" style="stop-color:#AB1C1E"/>
						<stop  offset="1" style="stop-color:#AB1C1E"/>
					</radialGradient>
					<circle fill="url(#SVGID_1_)" cx="27.264" cy="27.224" r="25"/>
					<g opacity="0.35">
						<path d="M23.73,50.118c-1.891-0.293-3.735-0.813-5.484-1.551c-0.592-0.25-0.873-0.935-0.621-1.526
							c0.25-0.595,0.94-0.876,1.527-0.622c2.896,1.222,6.119,1.777,9.25,1.612c0.633-0.039,1.194,0.458,1.225,1.103
							c0.039,0.642-0.457,1.191-1.101,1.226C26.935,50.447,25.322,50.364,23.73,50.118z M33.203,49.516
							c-0.435-0.069-0.811-0.379-0.94-0.831c-0.181-0.617,0.174-1.265,0.794-1.445c3.021-0.874,5.854-2.456,8.197-4.573
							c0.475-0.433,1.217-0.395,1.647,0.081c0.43,0.477,0.395,1.219-0.082,1.648c-2.604,2.355-5.757,4.113-9.111,5.087
							C33.539,49.529,33.366,49.539,33.203,49.516z M14.172,46.195c-0.176-0.027-0.349-0.098-0.503-0.211
							c-2.832-2.058-5.202-4.78-6.853-7.873c-0.303-0.568-0.088-1.274,0.479-1.58c0.57-0.303,1.275-0.085,1.581,0.481
							c1.484,2.785,3.614,5.234,6.162,7.086c0.52,0.38,0.635,1.106,0.258,1.628C15.029,46.092,14.591,46.26,14.172,46.195z
							 M45.154,40.938c-0.17-0.027-0.34-0.091-0.486-0.195c-0.53-0.368-0.66-1.097-0.292-1.625c1.819-2.607,2.991-5.543,3.479-8.715
							c0.159-1.024,0.242-2.067,0.248-3.098c0.006-0.647,0.527-1.166,1.172-1.163c0.638,0.003,1.162,0.527,1.161,1.172
							c-0.006,1.148-0.098,2.308-0.272,3.445c-0.545,3.527-1.852,6.789-3.874,9.693C46.026,40.83,45.581,41.004,45.154,40.938z
							 M5.835,34.079c-0.44-0.068-0.823-0.39-0.948-0.85c-0.84-3.115-1.012-6.325-0.515-9.542c0.046-0.301,0.127-0.789,0.186-1.083
							c0.12-0.615,0.735-1.217,1.351-1.119c0.017,0,0.03,0.005,0.047,0.006c0.637,0.098,1.016,0.929,0.891,1.562
							c-0.051,0.265-0.112,0.627-0.154,0.894c-0.443,2.894-0.298,5.829,0.458,8.629c0.166,0.624-0.206,1.288-0.829,1.455
							C6.159,34.07,5.991,34.103,5.835,34.079z M6.989,19.415c-0.1-0.014-0.2-0.042-0.295-0.083
							c-0.591-0.264-0.856-0.952-0.594-1.542c1.42-3.193,3.598-6.074,6.292-8.329c0.496-0.411,1.23-0.344,1.643,0.146
							c0.413,0.495,0.348,1.231-0.145,1.645c-2.425,2.027-4.381,4.618-5.657,7.487C8.015,19.231,7.498,19.496,6.989,19.415z
							 M48.55,23.509c-0.46-0.073-0.851-0.416-0.962-0.896c-0.695-3.066-2.109-5.988-4.088-8.449
							c-0.404-0.504-0.325-1.237,0.176-1.639c0.502-0.408,1.238-0.325,1.641,0.176c2.2,2.735,3.772,5.986,4.551,9.396
							c0.14,0.626-0.251,1.251-0.879,1.396C48.838,23.525,48.691,23.528,48.55,23.509z M17.127,8.76
							c-0.358-0.056-0.685-0.276-0.86-0.622c-0.293-0.575-0.065-1.278,0.509-1.571c3.128-1.593,6.631-2.458,10.13-2.508
							c0.654-0.008,1.178,0.505,1.188,1.149c0.008,0.645-0.508,1.175-1.151,1.183c-3.146,0.043-6.293,0.824-9.105,2.255
							C17.605,8.763,17.361,8.796,17.127,8.76z M40.685,11.078c-0.192-0.03-0.381-0.108-0.541-0.237
							c-2.51-1.976-5.367-3.314-8.496-3.984c-0.632-0.137-1.032-0.756-0.898-1.387c0.134-0.628,0.784-0.974,1.384-0.896
							c3.482,0.744,6.663,2.235,9.453,4.434c0.504,0.396,0.593,1.13,0.192,1.638C41.512,10.989,41.089,11.14,40.685,11.078z"/>
					</g>
					<g opacity="0.35">
						<path d="M18.383,48.621c-1.765-0.733-3.432-1.678-4.954-2.812c-0.515-0.382-0.626-1.114-0.241-1.628
							c0.387-0.521,1.121-0.629,1.632-0.242c2.522,1.875,5.52,3.184,8.603,3.767c0.625,0.113,1.051,0.726,0.925,1.363
							c-0.111,0.632-0.727,1.047-1.358,0.928C21.423,49.703,19.874,49.239,18.383,48.621z M27.732,50.289
							c-0.407-0.171-0.697-0.562-0.717-1.03c-0.026-0.645,0.473-1.187,1.113-1.215c3.145-0.13,6.273-0.992,9.051-2.493
							c0.564-0.309,1.275-0.095,1.581,0.472c0.303,0.565,0.091,1.275-0.472,1.579c-3.087,1.669-6.566,2.626-10.06,2.775
							C28.054,50.381,27.882,50.35,27.732,50.289z M10.039,42.536c-0.166-0.068-0.32-0.177-0.441-0.322
							c-2.263-2.673-3.914-5.882-4.783-9.28c-0.159-0.623,0.217-1.258,0.841-1.417c0.625-0.159,1.26,0.219,1.419,0.84
							c0.781,3.061,2.27,5.945,4.303,8.351c0.415,0.491,0.353,1.225-0.137,1.643C10.896,42.641,10.43,42.699,10.039,42.536z
							 M41.379,44.801c-0.157-0.067-0.307-0.168-0.427-0.308c-0.425-0.482-0.378-1.219,0.104-1.646
							c2.386-2.1,4.225-4.674,5.452-7.637c0.398-0.96,0.729-1.952,0.979-2.952c0.159-0.625,0.791-1.005,1.414-0.849
							c0.618,0.153,1.005,0.787,0.849,1.412c-0.277,1.116-0.642,2.218-1.083,3.284c-1.372,3.295-3.409,6.152-6.068,8.491
							C42.253,44.903,41.777,44.965,41.379,44.801z M4.821,28.786c-0.412-0.172-0.709-0.575-0.719-1.051
							c-0.075-3.227,0.519-6.384,1.767-9.392c0.117-0.28,0.312-0.736,0.439-1.007c0.262-0.569,1.003-1.008,1.58-0.768
							c0.013,0.006,0.028,0.014,0.042,0.019c0.596,0.245,0.765,1.144,0.494,1.726c-0.113,0.248-0.26,0.586-0.361,0.834
							c-1.12,2.705-1.677,5.592-1.608,8.49c0.011,0.645-0.508,1.2-1.151,1.216C5.137,28.854,4.965,28.846,4.821,28.786z
							 M9.429,14.817c-0.093-0.039-0.184-0.09-0.265-0.152c-0.514-0.397-0.605-1.129-0.212-1.64c2.14-2.762,4.941-5.044,8.091-6.592
							c0.584-0.28,1.281-0.041,1.565,0.532c0.282,0.579,0.042,1.28-0.534,1.562c-2.836,1.392-5.353,3.445-7.275,5.929
							C10.467,14.88,9.906,15.017,9.429,14.817z M48.825,28.678c-0.43-0.181-0.729-0.605-0.722-1.099
							c0.052-3.145-0.626-6.319-1.963-9.18c-0.271-0.583-0.021-1.277,0.562-1.548c0.582-0.276,1.28-0.022,1.551,0.559
							c1.484,3.182,2.238,6.712,2.184,10.208c-0.013,0.645-0.543,1.158-1.185,1.148C49.1,28.763,48.955,28.731,48.825,28.678z
							 M21.812,6.879c-0.336-0.14-0.601-0.433-0.688-0.812c-0.148-0.625,0.239-1.256,0.867-1.402
							c3.418-0.805,7.024-0.811,10.436-0.028c0.638,0.149,1.023,0.771,0.879,1.399c-0.146,0.628-0.773,1.021-1.398,0.875
							c-3.066-0.707-6.31-0.694-9.383,0.023C22.275,6.993,22.029,6.97,21.812,6.879z M44.141,14.733
							c-0.181-0.075-0.344-0.195-0.469-0.36c-1.969-2.514-4.424-4.494-7.307-5.89c-0.58-0.283-0.821-0.979-0.541-1.56
							c0.277-0.578,0.996-0.759,1.557-0.541c3.209,1.551,5.94,3.755,8.131,6.554c0.394,0.507,0.301,1.24-0.207,1.638
							C44.965,14.842,44.519,14.89,44.141,14.733z"/>
					</g>
					<g>
						<path fill="#F2F2F2" d="M25.668,50c-0.02,0-0.042,0-0.064,0c-1.568,0-3.133-0.396-4.658-0.836
							c-1.81-0.521-3.551-1.263-5.169-2.203c-0.398-0.231-0.534-0.741-0.304-1.139c0.23-0.4,0.742-0.529,1.14-0.301
							c1.503,0.873,3.114,1.558,4.795,2.04c1.415,0.41,2.868,0.671,4.322,0.778c0.457,0.034,0.804,0.434,0.77,0.893
							C26.466,49.671,26.101,50,25.668,50z M30.645,49.802c-0.402,0-0.755-0.293-0.82-0.704c-0.071-0.455,0.238-0.882,0.694-0.952
							c3.157-0.493,6.22-1.724,8.849-3.558c0.383-0.262,0.901-0.173,1.164,0.207c0.262,0.378,0.167,0.898-0.208,1.16
							c-2.839,1.979-6.14,3.304-9.547,3.837C30.73,49.798,30.688,49.802,30.645,49.802z M12.197,44.095
							c-0.205,0-0.412-0.075-0.572-0.227c-2.509-2.363-4.486-5.323-5.717-8.555c-0.162-0.43,0.056-0.912,0.485-1.077
							c0.427-0.157,0.911,0.054,1.075,0.483c1.14,2.999,2.972,5.742,5.3,7.934c0.335,0.316,0.349,0.844,0.035,1.179
							C12.641,44.005,12.419,44.095,12.197,44.095z M43.592,42.81c-0.198,0-0.397-0.071-0.557-0.215
							c-0.342-0.309-0.368-0.836-0.06-1.176c2.171-2.402,3.728-5.21,4.626-8.34c0.293-1.013,0.511-2.051,0.65-3.082
							c0.06-0.456,0.486-0.792,0.936-0.714c0.456,0.06,0.774,0.479,0.715,0.936c-0.148,1.113-0.383,2.229-0.696,3.32
							c-0.972,3.376-2.653,6.403-4.995,8.996C44.047,42.716,43.82,42.81,43.592,42.81z M5.457,31.014
							c-0.408,0-0.769-0.303-0.824-0.72c-0.14-1.011-0.209-2.044-0.209-3.066c0-2.129,0.301-4.258,0.896-6.322
							c0.082-0.287,0.17-0.576,0.267-0.859c0.144-0.436,0.625-0.678,1.055-0.524c0.434,0.145,0.671,0.619,0.524,1.055
							c-0.088,0.261-0.169,0.523-0.244,0.789c-0.553,1.917-0.83,3.89-0.83,5.862c0,0.946,0.065,1.901,0.19,2.839
							c0.066,0.457-0.254,0.878-0.708,0.939C5.534,31.012,5.495,31.014,5.457,31.014z M49.168,25.955
							c-0.423,0-0.785-0.322-0.828-0.753c-0.306-3.178-1.355-6.306-3.032-9.042c-0.239-0.393-0.12-0.905,0.275-1.147
							c0.394-0.234,0.905-0.117,1.146,0.276c1.811,2.951,2.939,6.325,3.271,9.754c0.043,0.458-0.292,0.863-0.751,0.91
							C49.223,25.954,49.194,25.955,49.168,25.955z M8.465,16.617c-0.147,0-0.297-0.039-0.434-0.123
							c-0.394-0.237-0.517-0.751-0.277-1.145c1.789-2.946,4.277-5.488,7.194-7.354c0.385-0.249,0.901-0.138,1.149,0.253
							c0.25,0.388,0.137,0.904-0.251,1.151c-2.704,1.729-5.01,4.086-6.672,6.816C9.019,16.473,8.745,16.617,8.465,16.617z
							 M42.949,12.625c-0.217,0-0.432-0.082-0.595-0.249c-2.272-2.313-4.979-4.035-8.048-5.113c-0.436-0.152-0.663-0.629-0.51-1.063
							c0.152-0.432,0.632-0.665,1.063-0.509c3.311,1.166,6.231,3.021,8.683,5.518c0.322,0.328,0.316,0.855-0.013,1.179
							C43.369,12.546,43.159,12.625,42.949,12.625z M19.875,7.331c-0.34,0-0.661-0.212-0.783-0.553
							c-0.156-0.434,0.069-0.911,0.505-1.065c3.278-1.174,6.807-1.571,10.218-1.186c0.457,0.051,0.788,0.466,0.733,0.923
							c-0.05,0.456-0.478,0.776-0.921,0.734c-3.161-0.363-6.429,0.011-9.471,1.098C20.062,7.314,19.969,7.331,19.875,7.331z"/>
					</g>
				</g>
			</g>
		</g>
		<radialGradient id="SVGID_2_" cx="27.2632" cy="27.2236" r="20.8333" gradientUnits="userSpaceOnUse">
			<stop  offset="0.908" style="stop-color:#AB1C1E"/>
			<stop  offset="0.9529" style="stop-color:#A91C1E"/>
			<stop  offset="0.9724" style="stop-color:#A21A1C"/>
			<stop  offset="0.9871" style="stop-color:#95181A"/>
			<stop  offset="0.9992" style="stop-color:#831517"/>
			<stop  offset="1" style="stop-color:#821517"/>
		</radialGradient>
		<circle fill="url(#SVGID_2_)" cx="27.263" cy="27.224" r="20.833"/>
	</g>
	<path fill-rule="evenodd" clip-rule="evenodd" fill="#FFFFFF" d="M26.628,32.937c2.112,1.559,5.984,0.619,7.656-0.772
		c2.409-2.004,3.525-6.066,3.168-9.282c-0.397-3.601-3.844-6.775-7.923-7.222c-6.27-0.686-11.97,3.064-12.012,9.025
		c-0.02,2.808,0.907,4.575,3.434,5.545c1.723-1.672-0.322-2.756-0.53-4.642c-0.546-5.005,5.55-9.82,10.96-6.706
		c3.767,2.17,3.129,11.482-1.452,12.38c-0.914,0.179-2.057-0.1-2.509-0.517c-2.176-1.992,1.803-5.489,0.529-8.38
		c-1.106-2.509-4.279-0.5-4.622,1.675c-0.188,1.181,0.391,2.319,0.394,3.354c0.011,2.459-1.574,5.806-1.979,8.252
		c-0.156,0.95-0.299,2.901-0.064,3.899c-0.014,0.011-0.025,0.021-0.039,0.034h1.652c1.16-1.921,1.953-4.812,2.544-7.289
		C26.201,32.032,26.335,32.726,26.628,32.937z"/>
</g>
</svg>
